  0
SECTION
  2
HEADER
  9
$ACADVER
  1
AC1006
  9
$EXTMIN
 10
0.000000
 20
0.000000
 30
0.000000
  9
$EXTMAX
 10
563.000000
 20
797.000000
 30
0.000000
  0
ENDSEC
  0
SECTION
  2
ENTITIES
  0
POLYLINE
  8
0
 66
1
 70
1
  0
VERTEX
  8
0
 10
357.000000
 20
641.118279
 42
0.120891
  0
VERTEX
  8
0
 10
357.237634
 20
640.149801
 42
0.040444
  0
VERTEX
  8
0
 10
358.020139
 20
638.907423
 42
0.036950
  0
VERTEX
  8
0
 10
359.156547
 20
637.603301
 42
0.032146
  0
VERTEX
  8
0
 10
360.524025
 20
636.413878
 42
-0.040183
  0
VERTEX
  8
0
 10
363.605888
 20
633.645152
 42
-0.013217
  0
VERTEX
  8
0
 10
367.683022
 20
629.108597
 42
-0.005175
  0
VERTEX
  8
0
 10
371.715328
 20
624.275643
 42
-0.385098
  0
VERTEX
  8
0
 10
371.668045
 20
623.334711
 42
-0.300510
  0
VERTEX
  8
0
 10
371.371644
 20
623.274150
 42
-0.008304
  0
VERTEX
  8
0
 10
370.102178
 20
623.809238
 42
-0.014451
  0
VERTEX
  8
0
 10
368.582683
 20
624.532802
 42
-0.009086
  0
VERTEX
  8
0
 10
366.848452
 20
625.461137
 42
0.031600
  0
VERTEX
  8
0
 10
357.446829
 20
629.961889
 42
0.019217
  0
VERTEX
  8
0
 10
345.847074
 20
634.128829
 42
0.018371
  0
VERTEX
  8
0
 10
333.180070
 20
637.630472
 42
0.019318
  0
VERTEX
  8
0
 10
320.500000
 20
640.126124
 42
0.034922
  0
VERTEX
  8
0
 10
306.116648
 20
641.364493
 42
0.021081
  0
VERTEX
  8
0
 10
289.006701
 20
640.918087
 42
0.021117
  0
VERTEX
  8
0
 10
272.093464
 20
639.042084
 42
0.036736
  0
VERTEX
  8
0
 10
258.339552
 20
635.877728
 42
-0.010989
  0
VERTEX
  8
0
 10
254.433355
 20
634.764640
 42
-0.058005
  0
VERTEX
  8
0
 10
252.231235
 20
634.454897
 42
-0.067305
  0
VERTEX
  8
0
 10
250.164826
 20
634.684269
 42
-0.017792
  0
VERTEX
  8
0
 10
246.964861
 20
635.606285
 42
0.061106
  0
VERTEX
  8
0
 10
241.333173
 20
636.713064
 42
0.029940
  0
VERTEX
  8
0
 10
234.010639
 20
636.801894
 42
0.029912
  0
VERTEX
  8
0
 10
226.787401
 20
636.022109
 42
0.066135
  0
VERTEX
  8
0
 10
221.500000
 20
634.389867
 42
0.027126
  0
VERTEX
  8
0
 10
216.730025
 20
631.871660
 42
0.016723
  0
VERTEX
  8
0
 10
211.397412
 20
628.427819
 42
0.016627
  0
VERTEX
  8
0
 10
206.241132
 20
624.587821
 42
0.024407
  0
VERTEX
  8
0
 10
202.000000
 20
620.851757
 42
-0.009690
  0
VERTEX
  8
0
 10
199.765852
 20
618.763778
 42
-0.004050
  0
VERTEX
  8
0
 10
196.678366
 20
616.033304
 42
-0.004006
  0
VERTEX
  8
0
 10
193.326200
 20
613.163664
 42
-0.005184
  0
VERTEX
  8
0
 10
190.202947
 20
610.587923
 42
0.038721
  0
VERTEX
  8
0
 10
174.501965
 20
595.764522
 42
0.026918
  0
VERTEX
  8
0
 10
159.104266
 20
576.836640
 42
0.026207
  0
VERTEX
  8
0
 10
145.323805
 20
555.650529
 42
0.029767
  0
VERTEX
  8
0
 10
134.468069
 20
534.000000
 42
0.014757
  0
VERTEX
  8
0
 10
130.989892
 20
525.183077
 42
0.007295
  0
VERTEX
  8
0
 10
127.070426
 20
513.801318
 42
0.007215
  0
VERTEX
  8
0
 10
123.551505
 20
502.530515
 42
0.018348
  0
VERTEX
  8
0
 10
121.419157
 20
494.231724
 42
0.017708
  0
VERTEX
  8
0
 10
120.812878
 20
490.888638
 42
0.006963
  0
VERTEX
  8
0
 10
120.205626
 20
486.246194
 42
0.006881
  0
VERTEX
  8
0
 10
119.687674
 20
481.204693
 42
0.008533
  0
VERTEX
  8
0
 10
119.350471
 20
476.500000
 42
-0.010862
  0
VERTEX
  8
0
 10
118.814167
 20
469.476392
 42
-0.041621
  0
VERTEX
  8
0
 10
118.024780
 20
465.165932
 42
-0.033598
  0
VERTEX
  8
0
 10
116.461029
 20
460.622668
 42
-0.005371
  0
VERTEX
  8
0
 10
112.719478
 20
452.000000
 42
-0.008252
  0
VERTEX
  8
0
 10
107.117886
 20
439.997226
 42
-0.002699
  0
VERTEX
  8
0
 10
98.473484
 20
422.485786
 42
-0.002255
  0
VERTEX
  8
0
 10
87.191262
 20
400.190073
 42
-0.001177
  0
VERTEX
  8
0
 10
72.939781
 20
372.500000
 42
0.007747
  0
VERTEX
  8
0
 10
65.065195
 20
356.692889
 42
0.015507
  0
VERTEX
  8
0
 10
59.429708
 20
343.925404
 42
0.017977
  0
VERTEX
  8
0
 10
55.152364
 20
332.160542
 42
0.015731
  0
VERTEX
  8
0
 10
51.518867
 20
319.586378
 42
0.028410
  0
VERTEX
  8
0
 10
47.291198
 20
297.958341
 42
0.041844
  0
VERTEX
  8
0
 10
46.274257
 20
278.639954
 42
0.043877
  0
VERTEX
  8
0
 10
48.483279
 20
260.124489
 42
0.035888
  0
VERTEX
  8
0
 10
53.961286
 20
240.943467
 42
0.015247
  0
VERTEX
  8
0
 10
56.785856
 20
233.880400
 42
0.031203
  0
VERTEX
  8
0
 10
59.504007
 20
228.572833
 42
0.037583
  0
VERTEX
  8
0
 10
62.477984
 20
224.325127
 42
0.037551
  0
VERTEX
  8
0
 10
66.055099
 20
220.569187
 42
0.053142
  0
VERTEX
  8
0
 10
71.778452
 20
216.409092
 42
0.085249
  0
VERTEX
  8
0
 10
77.430218
 20
214.331563
 42
0.084329
  0
VERTEX
  8
0
 10
83.495634
 20
214.247176
 42
0.050963
  0
VERTEX
  8
0
 10
90.464572
 20
216.072629
 42
0.040222
  0
VERTEX
  8
0
 10
95.152183
 20
218.270453
 42
0.030213
  0
VERTEX
  8
0
 10
99.921802
 20
221.390144
 42
0.022032
  0
VERTEX
  8
0
 10
105.531369
 20
225.960823
 42
0.008245
  0
VERTEX
  8
0
 10
113.000000
 20
232.838745
 42
0.000000
  0
VERTEX
  8
0
 10
120.500000
 20
239.977645
 42
0.000000
  0
VERTEX
  8
0
 10
124.500000
 20
237.122857
 42
0.063465
  0
VERTEX
  8
0
 10
136.562765
 20
230.640616
 42
0.051267
  0
VERTEX
  8
0
 10
150.770512
 20
226.801732
 42
0.049972
  0
VERTEX
  8
0
 10
165.852318
 20
225.871676
 42
0.053079
  0
VERTEX
  8
0
 10
180.505339
 20
228.001365
 42
-0.003297
  0
VERTEX
  8
0
 10
183.517421
 20
228.750601
 42
-0.005396
  0
VERTEX
  8
0
 10
186.080315
 20
229.340991
 42
-0.001234
  0
VERTEX
  8
0
 10
188.316309
 20
229.824951
 42
-0.309724
  0
VERTEX
  8
0
 10
188.495314
 20
229.751365
 42
-0.130438
  0
VERTEX
  8
0
 10
188.569423
 20
229.528225
 42
-0.000085
  0
VERTEX
  8
0
 10
188.970813
 20
222.964464
 42
-0.001027
  0
VERTEX
  8
0
 10
189.402086
 20
215.644782
 42
-0.000627
  0
VERTEX
  8
0
 10
189.882737
 20
207.000000
 42
0.001136
  0
VERTEX
  8
0
 10
191.107472
 20
185.369530
 42
0.012259
  0
VERTEX
  8
0
 10
191.836816
 20
176.639203
 42
0.024485
  0
VERTEX
  8
0
 10
192.573289
 20
171.981628
 42
0.355147
  0
VERTEX
  8
0
 10
193.780980
 20
171.000000
 42
0.338400
  0
VERTEX
  8
0
 10
194.570807
 20
171.603685
 42
0.053543
  0
VERTEX
  8
0
 10
194.899737
 20
173.660269
 42
0.022001
  0
VERTEX
  8
0
 10
194.929819
 20
177.608578
 42
0.002690
  0
VERTEX
  8
0
 10
194.568779
 20
186.250000
 42
0.002391
  0
VERTEX
  8
0
 10
194.207800
 20
193.196693
 42
0.001396
  0
VERTEX
  8
0
 10
193.712099
 20
201.519228
 42
0.001396
  0
VERTEX
  8
0
 10
193.169347
 20
209.847816
 42
0.002368
  0
VERTEX
  8
0
 10
192.662589
 20
216.815459
 42
0.000000
  0
VERTEX
  8
0
 10
191.475761
 20
232.130917
 42
0.000000
  0
VERTEX
  8
0
 10
194.790480
 20
234.179526
 42
-0.010134
  0
VERTEX
  8
0
 10
196.076606
 20
234.938815
 42
-0.016839
  0
VERTEX
  8
0
 10
197.193556
 20
235.519411
 42
-0.010859
  0
VERTEX
  8
0
 10
198.109685
 20
235.932905
 42
-0.378480
  0
VERTEX
  8
0
 10
198.316454
 20
235.864068
 42
-0.019269
  0
VERTEX
  8
0
 10
198.463616
 20
235.586330
 42
-0.000304
  0
VERTEX
  8
0
 10
199.239799
 20
233.971723
 42
-0.000804
  0
VERTEX
  8
0
 10
200.137846
 20
232.092969
 42
-0.000532
  0
VERTEX
  8
0
 10
201.163097
 20
229.933287
 42
-0.015422
  0
VERTEX
  8
0
 10
202.548010
 20
226.758315
 42
-0.051132
  0
VERTEX
  8
0
 10
203.173381
 20
224.569522
 42
-0.061575
  0
VERTEX
  8
0
 10
203.282175
 20
222.523816
 42
-0.030211
  0
VERTEX
  8
0
 10
202.942793
 20
219.933287
 42
0.049072
  0
VERTEX
  8
0
 10
201.987624
 20
209.648389
 42
0.015718
  0
VERTEX
  8
0
 10
202.554347
 20
194.294289
 42
0.009991
  0
VERTEX
  8
0
 10
203.906575
 20
179.021530
 42
0.170913
  0
VERTEX
  8
0
 10
206.048444
 20
174.551556
 42
0.127231
  0
VERTEX
  8
0
 10
206.642237
 20
174.201809
 42
0.503656
  0
VERTEX
  8
0
 10
206.925518
 20
174.418928
 42
0.041952
  0
VERTEX
  8
0
 10
206.798299
 20
175.685116
 42
0.001779
  0
VERTEX
  8
0
 10
205.957871
 20
180.113510
 42
-0.039726
  0
VERTEX
  8
0
 10
205.230211
 20
186.600800
 42
-0.005320
  0
VERTEX
  8
0
 10
204.932288
 20
200.358892
 42
-0.003202
  0
VERTEX
  8
0
 10
204.866515
 20
214.632245
 42
-0.091406
  0
VERTEX
  8
0
 10
205.538044
 20
218.238545
 42
-0.417609
  0
VERTEX
  8
0
 10
206.249295
 20
218.550388
 42
-0.088177
  0
VERTEX
  8
0
 10
207.530691
 20
217.757891
 42
-0.032076
  0
VERTEX
  8
0
 10
209.640961
 20
215.611369
 42
-0.005865
  0
VERTEX
  8
0
 10
213.234328
 20
211.354008
 42
0.024310
  0
VERTEX
  8
0
 10
219.889349
 20
204.034765
 42
0.024697
  0
VERTEX
  8
0
 10
227.189924
 20
197.436630
 42
0.025512
  0
VERTEX
  8
0
 10
234.843141
 20
191.803582
 42
0.031128
  0
VERTEX
  8
0
 10
242.553013
 20
187.376350
 42
0.014425
  0
VERTEX
  8
0
 10
246.924818
 20
185.370445
 42
0.035934
  0
VERTEX
  8
0
 10
250.250918
 20
184.233081
 42
0.036312
  0
VERTEX
  8
0
 10
253.685061
 20
183.590214
 42
0.015007
  0
VERTEX
  8
0
 10
258.399914
 20
183.200586
 42
0.052211
  0
VERTEX
  8
0
 10
270.147780
 20
183.810715
 42
0.045883
  0
VERTEX
  8
0
 10
282.058096
 20
186.825515
 42
0.042755
  0
VERTEX
  8
0
 10
293.989752
 20
192.226699
 42
0.034249
  0
VERTEX
  8
0
 10
305.799378
 20
199.947251
 42
0.023229
  0
VERTEX
  8
0
 10
312.007943
 20
205.112538
 42
0.018192
  0
VERTEX
  8
0
 10
318.258560
 20
211.256058
 42
0.018580
  0
VERTEX
  8
0
 10
323.808713
 20
217.577728
 42
0.032454
  0
VERTEX
  8
0
 10
327.848547
 20
223.254944
 42
-0.010095
  0
VERTEX
  8
0
 10
328.776040
 20
224.690042
 42
-0.015153
  0
VERTEX
  8
0
 10
329.647563
 20
225.899890
 42
-0.009976
  0
VERTEX
  8
0
 10
330.410190
 20
226.853620
 42
-0.222657
  0
VERTEX
  8
0
 10
330.722606
 20
227.000000
 42
-0.146136
  0
VERTEX
  8
0
 10
331.094046
 20
226.889070
 42
-0.003646
  0
VERTEX
  8
0
 10
332.580885
 20
225.898438
 42
-0.007546
  0
VERTEX
  8
0
 10
334.313733
 20
224.687036
 42
-0.005034
  0
VERTEX
  8
0
 10
336.263003
 20
223.250000
 42
-0.052766
  0
VERTEX
  8
0
 10
345.495161
 20
214.636037
 42
-0.015642
  0
VERTEX
  8
0
 10
357.706409
 20
199.637269
 42
-0.015729
  0
VERTEX
  8
0
 10
368.975878
 20
183.870805
 42
-0.050934
  0
VERTEX
  8
0
 10
374.993143
 20
172.516893
 42
0.032253
  0
VERTEX
  8
0
 10
376.578112
 20
169.236098
 42
0.112474
  0
VERTEX
  8
0
 10
378.151552
 20
167.507802
 42
0.500223
  0
VERTEX
  8
0
 10
379.036792
 20
167.800565
 42
0.123779
  0
VERTEX
  8
0
 10
379.176720
 20
169.603744
 42
0.095554
  0
VERTEX
  8
0
 10
375.302674
 20
179.915149
 42
0.019882
  0
VERTEX
  8
0
 10
364.497929
 20
196.063640
 42
0.021884
  0
VERTEX
  8
0
 10
351.793939
 20
211.993998
 42
0.045629
  0
VERTEX
  8
0
 10
340.326488
 20
222.951088
 42
-0.000274
  0
VERTEX
  8
0
 10
337.650883
 20
225.079556
 42
-0.000383
  0
VERTEX
  8
0
 10
335.261168
 20
226.985732
 42
-0.000229
  0
VERTEX
  8
0
 10
333.249179
 20
228.594644
 42
-0.005070
  0
VERTEX
  8
0
 10
332.668978
 20
229.068775
 42
-0.250194
  0
VERTEX
  8
0
 10
332.465244
 20
229.571253
 42
-0.035565
  0
VERTEX
  8
0
 10
332.667180
 20
230.705309
 42
-0.033516
  0
VERTEX
  8
0
 10
333.127178
 20
232.120240
 42
-0.022607
  0
VERTEX
  8
0
 10
333.829824
 20
233.666427
 42
0.038874
  0
VERTEX
  8
0
 10
338.532542
 20
244.977017
 42
0.006602
  0
VERTEX
  8
0
 10
345.509579
 20
267.284875
 42
0.004116
  0
VERTEX
  8
0
 10
352.198802
 20
290.400436
 42
0.092726
  0
VERTEX
  8
0
 10
352.810362
 20
297.290183
 42
0.054325
  0
VERTEX
  8
0
 10
352.520442
 20
298.685014
 42
0.612429
  0
VERTEX
  8
0
 10
352.091048
 20
298.753561
 42
0.064679
  0
VERTEX
  8
0
 10
351.403372
 20
297.497476
 42
0.003072
  0
VERTEX
  8
0
 10
349.681792
 20
293.000000
 42
0.005279
  0
VERTEX
  8
0
 10
348.390628
 20
289.450500
 42
0.002602
  0
VERTEX
  8
0
 10
346.820424
 20
284.912500
 42
0.002581
  0
VERTEX
  8
0
 10
345.239109
 20
280.184352
 42
0.003763
  0
VERTEX
  8
0
 10
343.898450
 20
276.000000
 42
-0.001149
  0
VERTEX
  8
0
 10
338.972698
 20
260.344923
 42
-0.004148
  0
VERTEX
  8
0
 10
335.729348
 20
250.405877
 42
-0.006378
  0
VERTEX
  8
0
 10
333.319418
 20
243.516068
 42
-0.015367
  0
VERTEX
  8
0
 10
331.316131
 20
238.500000
 42
-0.057404
  0
VERTEX
  8
0
 10
321.485345
 20
221.542422
 42
-0.054523
  0
VERTEX
  8
0
 10
307.905220
 20
206.935949
 42
-0.055093
  0
VERTEX
  8
0
 10
291.640216
 20
195.741921
 42
-0.061332
  0
VERTEX
  8
0
 10
273.887066
 20
188.852120
 42
-0.031998
  0
VERTEX
  8
0
 10
265.234642
 20
187.244433
 42
-0.054333
  0
VERTEX
  8
0
 10
257.879524
 20
187.162207
 42
-0.056860
  0
VERTEX
  8
0
 10
250.914160
 20
188.653948
 42
-0.038968
  0
VERTEX
  8
0
 10
243.468301
 20
191.823730
 42
-0.042325
  0
VERTEX
  8
0
 10
232.466724
 20
198.797558
 42
-0.036556
  0
VERTEX
  8
0
 10
222.204647
 20
207.846302
 42
-0.036101
  0
VERTEX
  8
0
 10
213.242291
 20
218.424447
 42
-0.038588
  0
VERTEX
  8
0
 10
206.114002
 20
229.957893
 42
-0.022553
  0
VERTEX
  8
0
 10
203.416761
 20
235.818148
 42
-0.031841
  0
VERTEX
  8
0
 10
201.595084
 20
241.267838
 42
-0.023312
  0
VERTEX
  8
0
 10
200.133326
 20
248.048765
 42
-0.006560
  0
VERTEX
  8
0
 10
198.487941
 20
258.748384
 42
-0.015748
  0
VERTEX
  8
0
 10
196.548221
 20
276.643950
 42
-0.030484
  0
VERTEX
  8
0
 10
196.324815
 20
291.030825
 42
-0.035598
  0
VERTEX
  8
0
 10
197.814584
 20
303.751022
 42
-0.033343
  0
VERTEX
  8
0
 10
201.109260
 20
316.420394
 42
-0.020513
  0
VERTEX
  8
0
 10
205.269114
 20
327.402086
 42
-0.037620
  0
VERTEX
  8
0
 10
209.670824
 20
335.891747
 42
-0.038038
  0
VERTEX
  8
0
 10
215.259934
 20
343.564388
 42
-0.021494
  0
VERTEX
  8
0
 10
223.096244
 20
352.000000
 42
0.016825
  0
VERTEX
  8
0
 10
230.709314
 20
360.043396
 42
0.023859
  0
VERTEX
  8
0
 10
236.877237
 20
367.724543
 42
0.026994
  0
VERTEX
  8
0
 10
241.616588
 20
375.039760
 42
0.039466
  0
VERTEX
  8
0
 10
244.897974
 20
381.973607
 42
-0.019463
  0
VERTEX
  8
0
 10
245.838077
 20
384.184559
 42
-0.016573
  0
VERTEX
  8
0
 10
246.995431
 20
386.439973
 42
-0.016892
  0
VERTEX
  8
0
 10
248.186890
 20
388.422979
 42
-0.044528
  0
VERTEX
  8
0
 10
249.207063
 20
389.727162
 42
-0.075296
  0
VERTEX
  8
0
 10
252.891445
 20
392.632231
 42
-0.069516
  0
VERTEX
  8
0
 10
257.370933
 20
394.413927
 42
-0.070357
  0
VERTEX
  8
0
 10
262.115166
 20
394.886444
 42
-0.080702
  0
VERTEX
  8
0
 10
266.572839
 20
393.972307
 42
0.000000
  0
VERTEX
  8
0
 10
269.275877
 20
392.944614
 42
0.000000
  0
VERTEX
  8
0
 10
262.977608
 20
388.561504
 42
0.005594
  0
VERTEX
  8
0
 10
256.169840
 20
383.709874
 42
0.509529
  0
VERTEX
  8
0
 10
256.172003
 20
382.654377
 42
0.263433
  0
VERTEX
  8
0
 10
257.745925
 20
382.478788
 42
0.004226
  0
VERTEX
  8
0
 10
266.244721
 20
386.198049
 42
-0.017927
  0
VERTEX
  8
0
 10
274.623141
 20
389.594292
 42
-0.050169
  0
VERTEX
  8
0
 10
280.756903
 20
391.154042
 42
-0.074648
  0
VERTEX
  8
0
 10
285.492339
 20
391.152807
 42
-0.108108
  0
VERTEX
  8
0
 10
289.386664
 20
389.666218
 42
-0.019724
  0
VERTEX
  8
0
 10
290.387456
 20
388.952523
 42
-0.026346
  0
VERTEX
  8
0
 10
291.232333
 20
388.223965
 42
-0.025515
  0
VERTEX
  8
0
 10
291.850512
 20
387.567658
 42
-0.177962
  0
VERTEX
  8
0
 10
292.000000
 20
387.160961
 42
-0.255816
  0
VERTEX
  8
0
 10
291.777753
 20
386.755000
 42
-0.013306
  0
VERTEX
  8
0
 10
290.457812
 20
385.959466
 42
-0.018361
  0
VERTEX
  8
0
 10
288.761909
 20
385.078547
 42
-0.012044
  0
VERTEX
  8
0
 10
286.750000
 20
384.184247
 42
0.015070
  0
VERTEX
  8
0
 10
282.288057
 20
382.168473
 42
0.020241
  0
VERTEX
  8
0
 10
278.384579
 20
380.061572
 42
0.014568
  0
VERTEX
  8
0
 10
275.357400
 20
378.144444
 42
0.471548
  0
VERTEX
  8
0
 10
275.284140
 20
377.382527
 42
0.256161
  0
VERTEX
  8
0
 10
275.729012
 20
377.252740
 42
0.004536
  0
VERTEX
  8
0
 10
278.244707
 20
377.833151
 42
0.010145
  0
VERTEX
  8
0
 10
281.216643
 20
378.611381
 42
0.006439
  0
VERTEX
  8
0
 10
284.646919
 20
379.632315
 42
-0.039391
  0
VERTEX
  8
0
 10
295.259801
 20
382.043611
 42
-0.074550
  0
VERTEX
  8
0
 10
304.011630
 20
382.007252
 42
-0.094443
  0
VERTEX
  8
0
 10
310.943823
 20
379.544895
 42
-0.105792
  0
VERTEX
  8
0
 10
316.165785
 20
374.772639
 42
-0.095582
  0
VERTEX
  8
0
 10
318.026491
 20
370.704505
 42
-0.059923
  0
VERTEX
  8
0
 10
318.648116
 20
365.491792
 42
-0.059892
  0
VERTEX
  8
0
 10
318.015836
 20
360.276682
 42
-0.095102
  0
VERTEX
  8
0
 10
316.147012
 20
356.200996
 42
-0.042513
  0
VERTEX
  8
0
 10
314.466422
 20
354.223987
 42
-0.139346
  0
VERTEX
  8
0
 10
312.979665
 20
353.403293
 42
-0.279133
  0
VERTEX
  8
0
 10
311.908239
 20
353.754716
 42
-0.146214
  0
VERTEX
  8
0
 10
311.316590
 20
355.082866
 42
0.007659
  0
VERTEX
  8
0
 10
310.762436
 20
358.903863
 42
0.019004
  0
VERTEX
  8
0
 10
310.208197
 20
361.675780
 42
0.021431
  0
VERTEX
  8
0
 10
309.684690
 20
363.508718
 42
0.557763
  0
VERTEX
  8
0
 10
309.272775
 20
363.606108
 42
0.094404
  0
VERTEX
  8
0
 10
308.483574
 20
362.445447
 42
0.002169
  0
VERTEX
  8
0
 10
305.850678
 20
356.296403
 42
0.002099
  0
VERTEX
  8
0
 10
303.264299
 20
350.110603
 42
0.098271
  0
VERTEX
  8
0
 10
303.000000
 20
348.778845
 42
0.313430
  0
VERTEX
  8
0
 10
303.449618
 20
348.132052
 42
0.137080
  0
VERTEX
  8
0
 10
304.544334
 20
348.040533
 42
0.094709
  0
VERTEX
  8
0
 10
305.854959
 20
348.560839
 42
0.124088
  0
VERTEX
  8
0
 10
306.736595
 20
349.493804
 42
-0.089335
  0
VERTEX
  8
0
 10
307.315093
 20
350.197014
 42
-0.157181
  0
VERTEX
  8
0
 10
308.003871
 20
350.482061
 42
-0.092060
  0
VERTEX
  8
0
 10
308.996469
 20
350.379432
 42
-0.018575
  0
VERTEX
  8
0
 10
310.685356
 20
349.812663
 42
0.029748
  0
VERTEX
  8
0
 10
312.429159
 20
349.270479
 42
0.083461
  0
VERTEX
  8
0
 10
313.700039
 20
349.174434
 42
0.087529
  0
VERTEX
  8
0
 10
314.897245
 20
349.500258
 42
0.034942
  0
VERTEX
  8
0
 10
316.386208
 20
350.333484
 42
0.086083
  0
VERTEX
  8
0
 10
318.759497
 20
352.552345
 42
0.043125
  0
VERTEX
  8
0
 10
320.951505
 20
356.040320
 42
0.040662
  0
VERTEX
  8
0
 10
322.676214
 20
360.193571
 42
0.044054
  0
VERTEX
  8
0
 10
323.649819
 20
364.461808
 42
-0.011256
  0
VERTEX
  8
0
 10
324.049285
 20
366.957298
 42
-0.101669
  0
VERTEX
  8
0
 10
324.461083
 20
367.976802
 42
-0.271598
  0
VERTEX
  8
0
 10
325.066633
 20
368.272214
 42
-0.104090
  0
VERTEX
  8
0
 10
326.000778
 20
367.999584
 42
-0.121173
  0
VERTEX
  8
0
 10
327.715080
 20
366.457484
 42
-0.041486
  0
VERTEX
  8
0
 10
329.370489
 20
363.526529
 42
-0.041311
  0
VERTEX
  8
0
 10
330.595534
 20
360.156254
 42
-0.066614
  0
VERTEX
  8
0
 10
331.000000
 20
357.133818
 42
-0.083130
  0
VERTEX
  8
0
 10
329.966433
 20
350.960227
 42
-0.040460
  0
VERTEX
  8
0
 10
326.751688
 20
343.616695
 42
-0.033793
  0
VERTEX
  8
0
 10
321.583860
 20
335.393429
 42
-0.021241
  0
VERTEX
  8
0
 10
314.521981
 20
326.500000
 42
0.015577
  0
VERTEX
  8
0
 10
309.284334
 20
320.055175
 42
0.078561
  0
VERTEX
  8
0
 10
307.089529
 20
315.984361
 42
0.060454
  0
VERTEX
  8
0
 10
305.989634
 20
310.993579
 42
0.006927
  0
VERTEX
  8
0
 10
305.041533
 20
299.500000
 42
-0.009605
  0
VERTEX
  8
0
 10
303.493179
 20
281.881874
 42
-0.022310
  0
VERTEX
  8
0
 10
301.492420
 20
268.774934
 42
-0.027459
  0
VERTEX
  8
0
 10
298.651908
 20
257.696587
 42
-0.025044
  0
VERTEX
  8
0
 10
294.541608
 20
246.641914
 42
0.010653
  0
VERTEX
  8
0
 10
293.103890
 20
243.091367
 42
0.446640
  0
VERTEX
  8
0
 10
293.440663
 20
242.439194
 42
0.325143
  0
VERTEX
  8
0
 10
294.275173
 20
242.767399
 42
0.009611
  0
VERTEX
  8
0
 10
296.353555
 20
246.171494
 42
0.029966
  0
VERTEX
  8
0
 10
301.659025
 20
256.641759
 42
0.038491
  0
VERTEX
  8
0
 10
305.178162
 20
266.844258
 42
0.034358
  0
VERTEX
  8
0
 10
307.348843
 20
278.346893
 42
0.017875
  0
VERTEX
  8
0
 10
308.546684
 20
292.907196
 42
-0.003749
  0
VERTEX
  8
0
 10
309.307963
 20
307.034781
 42
-0.042983
  0
VERTEX
  8
0
 10
310.124439
 20
312.539664
 42
-0.088284
  0
VERTEX
  8
0
 10
311.756033
 20
316.301152
 42
-0.037648
  0
VERTEX
  8
0
 10
315.134641
 20
320.648675
 42
0.013817
  0
VERTEX
  8
0
 10
320.034076
 20
326.368792
 42
0.012579
  0
VERTEX
  8
0
 10
324.770836
 20
332.529305
 42
0.013094
  0
VERTEX
  8
0
 10
328.875884
 20
338.476684
 42
0.024863
  0
VERTEX
  8
0
 10
331.807231
 20
343.500000
 42
0.027759
  0
VERTEX
  8
0
 10
333.104857
 20
346.382380
 42
0.037755
  0
VERTEX
  8
0
 10
333.925655
 20
349.112628
 42
0.032058
  0
VERTEX
  8
0
 10
334.409006
 20
352.258177
 42
0.013769
  0
VERTEX
  8
0
 10
334.667396
 20
356.500000
 42
-0.011130
  0
VERTEX
  8
0
 10
334.997363
 20
362.432647
 42
-0.236592
  0
VERTEX
  8
0
 10
335.880962
 20
363.898522
 42
-0.241209
  0
VERTEX
  8
0
 10
337.573220
 20
364.051784
 42
-0.011551
  0
VERTEX
  8
0
 10
342.953646
 20
361.737825
 42
-0.048175
  0
VERTEX
  8
0
 10
345.315355
 20
360.368192
 42
-0.015617
  0
VERTEX
  8
0
 10
348.526255
 20
357.911808
 42
-0.014694
  0
VERTEX
  8
0
 10
352.107234
 20
354.811004
 42
-0.012280
  0
VERTEX
  8
0
 10
355.726293
 20
351.318507
 42
-0.033838
  0
VERTEX
  8
0
 10
362.425844
 20
343.539548
 42
-0.044598
  0
VERTEX
  8
0
 10
367.349950
 20
335.583253
 42
-0.025400
  0
VERTEX
  8
0
 10
372.460355
 20
323.961257
 42
-0.004198
  0
VERTEX
  8
0
 10
380.974454
 20
301.000000
 42
0.012417
  0
VERTEX
  8
0
 10
391.769581
 20
273.292976
 42
0.022735
  0
VERTEX
  8
0
 10
402.133049
 20
251.383145
 42
0.025380
  0
VERTEX
  8
0
 10
413.580126
 20
232.201016
 42
0.021055
  0
VERTEX
  8
0
 10
427.605881
 20
213.000000
 42
-0.002519
  0
VERTEX
  8
0
 10
436.978594
 20
201.119570
 42
-0.005121
  0
VERTEX
  8
0
 10
444.202814
 20
191.669039
 42
-0.006200
  0
VERTEX
  8
0
 10
450.233051
 20
183.398908
 42
-0.006850
  0
VERTEX
  8
0
 10
455.855143
 20
175.250000
 42
0.006795
  0
VERTEX
  8
0
 10
458.300491
 20
171.704762
 42
0.010508
  0
VERTEX
  8
0
 10
460.517555
 20
168.717188
 42
0.005136
  0
VERTEX
  8
0
 10
462.452134
 20
166.273867
 42
0.226460
  0
VERTEX
  8
0
 10
463.025793
 20
166.000000
 42
0.095643
  0
VERTEX
  8
0
 10
463.688385
 20
166.127914
 42
0.313114
  0
VERTEX
  8
0
 10
463.920961
 20
166.480973
 42
0.074296
  0
VERTEX
  8
0
 10
463.784915
 20
167.260829
 42
0.003599
  0
VERTEX
  8
0
 10
462.934080
 20
169.759254
 42
-0.047513
  0
VERTEX
  8
0
 10
462.501949
 20
171.521475
 42
-0.051412
  0
VERTEX
  8
0
 10
462.426370
 20
173.286821
 42
-0.040529
  0
VERTEX
  8
0
 10
462.719442
 20
175.352126
 42
-0.016676
  0
VERTEX
  8
0
 10
463.434080
 20
178.089978
 42
0.035284
  0
VERTEX
  8
0
 10
464.482476
 20
182.819693
 42
0.030027
  0
VERTEX
  8
0
 10
464.929634
 20
187.913507
 42
0.030703
  0
VERTEX
  8
0
 10
464.761530
 20
192.875893
 42
0.043942
  0
VERTEX
  8
0
 10
463.960291
 20
197.203383
 42
0.070601
  0
VERTEX
  8
0
 10
462.108470
 20
201.442292
 42
0.036810
  0
VERTEX
  8
0
 10
458.721140
 20
206.123101
 42
0.036778
  0
VERTEX
  8
0
 10
454.669408
 20
210.272064
 42
0.068329
  0
VERTEX
  8
0
 10
450.760829
 20
212.873735
 42
0.050652
  0
VERTEX
  8
0
 10
446.797603
 20
214.318730
 42
0.050775
  0
VERTEX
  8
0
 10
442.628030
 20
214.935865
 42
0.056215
  0
VERTEX
  8
0
 10
439.048215
 20
214.696259
 42
0.176532
  0
VERTEX
  8
0
 10
437.000000
 20
213.500000
 42
-0.030111
  0
VERTEX
  8
0
 10
436.462045
 20
212.925924
 42
-0.033224
  0
VERTEX
  8
0
 10
435.875527
 20
212.440625
 42
-0.035301
  0
VERTEX
  8
0
 10
435.324973
 20
212.099855
 42
-0.121510
  0
VERTEX
  8
0
 10
434.920148
 20
212.000000
 42
-0.235942
  0
VERTEX
  8
0
 10
432.891024
 20
213.013957
 42
-0.003401
  0
VERTEX
  8
0
 10
424.622894
 20
224.184637
 42
-0.009829
  0
VERTEX
  8
0
 10
416.411722
 20
235.915125
 42
-0.013797
  0
VERTEX
  8
0
 10
409.584755
 20
246.720883
 42
-0.018346
  0
VERTEX
  8
0
 10
404.643804
 20
255.782730
 42
-0.009263
  0
VERTEX
  8
0
 10
399.054255
 20
267.534232
 42
-0.009070
  0
VERTEX
  8
0
 10
393.610363
 20
280.152284
 42
-0.011516
  0
VERTEX
  8
0
 10
389.067616
 20
292.000000
 42
0.002162
  0
VERTEX
  8
0
 10
383.929017
 20
306.190215
 42
0.003012
  0
VERTEX
  8
0
 10
379.198574
 20
318.842762
 42
0.002381
  0
VERTEX
  8
0
 10
375.184977
 20
329.234850
 42
0.025986
  0
VERTEX
  8
0
 10
373.335798
 20
333.317532
 42
-0.017670
  0
VERTEX
  8
0
 10
372.800311
 20
334.449353
 42
-0.026373
  0
VERTEX
  8
0
 10
372.421042
 20
335.476093
 42
-0.024428
  0
VERTEX
  8
0
 10
372.206239
 20
336.309448
 42
-0.252366
  0
VERTEX
  8
0
 10
372.304624
 20
336.637958
 42
-0.224657
  0
VERTEX
  8
0
 10
372.672666
 20
336.769566
 42
-0.010689
  0
VERTEX
  8
0
 10
374.008694
 20
336.608560
 42
-0.015800
  0
VERTEX
  8
0
 10
375.631655
 20
336.325110
 42
-0.010543
  0
VERTEX
  8
0
 10
377.470853
 20
335.903022
 42
0.086813
  0
VERTEX
  8
0
 10
389.364565
 20
335.027448
 42
0.045383
  0
VERTEX
  8
0
 10
403.993216
 20
337.847063
 42
0.044726
  0
VERTEX
  8
0
 10
418.295176
 20
343.402606
 42
0.068404
  0
VERTEX
  8
0
 10
429.285682
 20
350.865180
 42
0.000000
  0
VERTEX
  8
0
 10
433.322144
 20
354.500000
 42
0.000000
  0
VERTEX
  8
0
 10
432.684532
 20
349.000000
 42
0.013677
  0
VERTEX
  8
0
 10
431.757152
 20
338.496189
 42
0.009957
  0
VERTEX
  8
0
 10
431.278866
 20
326.778963
 42
0.007121
  0
VERTEX
  8
0
 10
431.207484
 20
316.030704
 42
0.077951
  0
VERTEX
  8
0
 10
431.907152
 20
311.781332
 42
0.065985
  0
VERTEX
  8
0
 10
434.812798
 20
305.774686
 42
0.069277
  0
VERTEX
  8
0
 10
439.143939
 20
300.843113
 42
0.069816
  0
VERTEX
  8
0
 10
444.624882
 20
297.311484
 42
0.068713
  0
VERTEX
  8
0
 10
450.895711
 20
295.400686
 42
-0.014321
  0
VERTEX
  8
0
 10
453.332134
 20
294.939172
 42
-0.135656
  0
VERTEX
  8
0
 10
454.262735
 20
294.448153
 42
-0.218491
  0
VERTEX
  8
0
 10
454.583867
 20
293.656572
 42
-0.044881
  0
VERTEX
  8
0
 10
454.376467
 20
292.124194
 42
-0.040835
  0
VERTEX
  8
0
 10
453.891848
 20
290.589433
 42
-0.005634
  0
VERTEX
  8
0
 10
452.591082
 20
287.502040
 42
-0.006431
  0
VERTEX
  8
0
 10
450.959027
 20
283.875460
 42
-0.005405
  0
VERTEX
  8
0
 10
449.138990
 20
280.074240
 42
0.008328
  0
VERTEX
  8
0
 10
446.318603
 20
274.094238
 42
0.044731
  0
VERTEX
  8
0
 10
445.137201
 20
270.696673
 42
0.049779
  0
VERTEX
  8
0
 10
444.638594
 20
267.300305
 42
0.011816
  0
VERTEX
  8
0
 10
444.508835
 20
261.574240
 42
0.025561
  0
VERTEX
  8
0
 10
444.952823
 20
253.057740
 42
0.048165
  0
VERTEX
  8
0
 10
446.315439
 20
246.316821
 42
0.041571
  0
VERTEX
  8
0
 10
449.092024
 20
239.340924
 42
0.014593
  0
VERTEX
  8
0
 10
454.180997
 20
229.824870
 42
0.015020
  0
VERTEX
  8
0
 10
462.231052
 20
216.703823
 42
0.028005
  0
VERTEX
  8
0
 10
469.639673
 20
206.676803
 42
0.030220
  0
VERTEX
  8
0
 10
477.718004
 20
198.053053
 42
0.021164
  0
VERTEX
  8
0
 10
487.770848
 20
189.319310
 42
0.010443
  0
VERTEX
  8
0
 10
497.786487
 20
181.672294
 42
0.028739
  0
VERTEX
  8
0
 10
505.247354
 20
176.850620
 42
0.033160
  0
VERTEX
  8
0
 10
512.581090
 20
173.308157
 42
0.018312
  0
VERTEX
  8
0
 10
521.943800
 20
169.921561
 42
0.018242
  0
VERTEX
  8
0
 10
533.230337
 20
166.749630
 42
0.038625
  0
VERTEX
  8
0
 10
542.192864
 20
165.300708
 42
0.051339
  0
VERTEX
  8
0
 10
549.225025
 20
165.438005
 42
0.102155
  0
VERTEX
  8
0
 10
554.479618
 20
167.212698
 42
0.040420
  0
VERTEX
  8
0
 10
556.167907
 20
168.392953
 42
0.025106
  0
VERTEX
  8
0
 10
557.952315
 20
170.025907
 42
0.025122
  0
VERTEX
  8
0
 10
559.561525
 20
171.826775
 42
0.040947
  0
VERTEX
  8
0
 10
560.713167
 20
173.520382
 42
0.072529
  0
VERTEX
  8
0
 10
562.036541
 20
176.927101
 42
0.041070
  0
VERTEX
  8
0
 10
562.671480
 20
181.317613
 42
0.014213
  0
VERTEX
  8
0
 10
562.928396
 20
189.075903
 42
0.001045
  0
VERTEX
  8
0
 10
562.983550
 20
210.374358
 42
0.016024
  0
VERTEX
  8
0
 10
561.889788
 20
245.035901
 42
0.057580
  0
VERTEX
  8
0
 10
557.963877
 20
266.780374
 42
0.041453
  0
VERTEX
  8
0
 10
548.634961
 20
290.375318
 42
0.005530
  0
VERTEX
  8
0
 10
524.349274
 20
338.133681
 42
-0.008451
  0
VERTEX
  8
0
 10
509.342565
 20
368.076434
 42
-0.011344
  0
VERTEX
  8
0
 10
496.827863
 20
395.727999
 42
-0.012527
  0
VERTEX
  8
0
 10
486.700834
 20
421.285654
 42
-0.016933
  0
VERTEX
  8
0
 10
478.921897
 20
444.889865
 42
-0.004489
  0
VERTEX
  8
0
 10
476.501335
 20
453.452279
 42
-0.032799
  0
VERTEX
  8
0
 10
475.650755
 20
457.627873
 42
-0.048573
  0
VERTEX
  8
0
 10
475.513484
 20
461.209444
 42
-0.016496
  0
VERTEX
  8
0
 10
475.991428
 20
466.404016
 42
0.030408
  0
VERTEX
  8
0
 10
477.090086
 20
483.562947
 42
0.031852
  0
VERTEX
  8
0
 10
476.065842
 20
500.461365
 42
0.031174
  0
VERTEX
  8
0
 10
472.865183
 20
517.419281
 42
0.026757
  0
VERTEX
  8
0
 10
467.456652
 20
534.757565
 42
0.032857
  0
VERTEX
  8
0
 10
459.256852
 20
553.042109
 42
0.042527
  0
VERTEX
  8
0
 10
449.305338
 20
568.490789
 42
0.038721
  0
VERTEX
  8
0
 10
436.122398
 20
583.083999
 42
0.021398
  0
VERTEX
  8
0
 10
417.985689
 20
598.861180
 42
-0.004212
  0
VERTEX
  8
0
 10
413.846921
 20
602.218812
 42
-0.005345
  0
VERTEX
  8
0
 10
410.084776
 20
605.392039
 42
-0.004249
  0
VERTEX
  8
0
 10
406.986207
 20
608.109009
 42
-0.043226
  0
VERTEX
  8
0
 10
405.813549
 20
609.352660
 42
-0.023558
  0
VERTEX
  8
0
 10
404.899016
 20
610.626880
 42
-0.134820
  0
VERTEX
  8
0
 10
404.649559
 20
611.412694
 42
-0.158700
  0
VERTEX
  8
0
 10
404.857444
 20
612.148335
 42
-0.036361
  0
VERTEX
  8
0
 10
405.662811
 20
613.179904
 42
-0.120003
  0
VERTEX
  8
0
 10
407.731721
 20
614.584322
 42
-0.031355
  0
VERTEX
  8
0
 10
411.600854
 20
615.759243
 42
-0.024635
  0
VERTEX
  8
0
 10
417.009117
 20
616.759405
 42
-0.010812
  0
VERTEX
  8
0
 10
424.250000
 20
617.573667
 42
0.013673
  0
VERTEX
  8
0
 10
430.368843
 20
618.297221
 42
0.262926
  0
VERTEX
  8
0
 10
431.828327
 20
619.428207
 42
0.427408
  0
VERTEX
  8
0
 10
431.265761
 20
620.720805
 42
0.020145
  0
VERTEX
  8
0
 10
426.250000
 20
622.339656
 42
0.020896
  0
VERTEX
  8
0
 10
419.607919
 20
623.895743
 42
0.032796
  0
VERTEX
  8
0
 10
413.790388
 20
624.613588
 42
0.036259
  0
VERTEX
  8
0
 10
408.386050
 20
624.530993
 42
0.035401
  0
VERTEX
  8
0
 10
403.005863
 20
623.670793
 42
-0.003946
  0
VERTEX
  8
0
 10
400.499444
 20
623.106568
 42
-0.006321
  0
VERTEX
  8
0
 10
398.350611
 20
622.668990
 42
-0.001873
  0
VERTEX
  8
0
 10
396.492105
 20
622.322150
 42
-0.246347
  0
VERTEX
  8
0
 10
396.277624
 20
622.389043
 42
-0.121349
  0
VERTEX
  8
0
 10
396.147828
 20
622.603682
 42
-0.000627
  0
VERTEX
  8
0
 10
395.407907
 20
624.986289
 42
-0.002749
  0
VERTEX
  8
0
 10
394.581708
 20
627.711555
 42
-0.001733
  0
VERTEX
  8
0
 10
393.645627
 20
630.901992
 42
0.015984
  0
VERTEX
  8
0
 10
391.844856
 20
636.449261
 42
0.053555
  0
VERTEX
  8
0
 10
390.174707
 20
639.881600
 42
0.111715
  0
VERTEX
  8
0
 10
388.574318
 20
641.491682
 42
0.287415
  0
VERTEX
  8
0
 10
387.002232
 20
641.501380
 42
0.202191
  0
VERTEX
  8
0
 10
386.475092
 20
640.760206
 42
0.040573
  0
VERTEX
  8
0
 10
386.247147
 20
639.120304
 42
0.027763
  0
VERTEX
  8
0
 10
386.243406
 20
636.628605
 42
0.008570
  0
VERTEX
  8
0
 10
386.510352
 20
632.883055
 42
-0.008431
  0
VERTEX
  8
0
 10
386.726631
 20
629.860287
 42
-0.014152
  0
VERTEX
  8
0
 10
386.793480
 20
627.315648
 42
-0.007835
  0
VERTEX
  8
0
 10
386.756972
 20
625.254058
 42
-0.404471
  0
VERTEX
  8
0
 10
386.494290
 20
625.000000
 42
-0.165907
  0
VERTEX
  8
0
 10
386.039258
 20
625.155260
 42
-0.004997
  0
VERTEX
  8
0
 10
384.444717
 20
626.412410
 42
-0.009407
  0
VERTEX
  8
0
 10
382.587207
 20
627.965706
 42
-0.006302
  0
VERTEX
  8
0
 10
380.519478
 20
629.808203
 42
0.034322
  0
VERTEX
  8
0
 10
376.113470
 20
633.312155
 42
0.016717
  0
VERTEX
  8
0
 10
370.059363
 20
637.190940
 42
0.016492
  0
VERTEX
  8
0
 10
363.897771
 20
640.584191
 42
0.044078
  0
VERTEX
  8
0
 10
359.250000
 20
642.453020
 42
0.033558
  0
VERTEX
  8
0
 10
358.082111
 20
642.722925
 42
0.175634
  0
VERTEX
  8
0
 10
357.444427
 20
642.601808
 42
0.211457
  0
VERTEX
  8
0
 10
357.101426
 20
642.119933
 42
0.050500
  0
SEQEND
  0
POLYLINE
  8
0
 66
1
 70
1
  0
VERTEX
  8
0
 10
317.022045
 20
636.559970
 42
-0.021590
  0
VERTEX
  8
0
 10
331.350096
 20
634.018628
 42
-0.022747
  0
VERTEX
  8
0
 10
345.154211
 20
630.284257
 42
-0.023765
  0
VERTEX
  8
0
 10
357.931359
 20
625.515564
 42
-0.030247
  0
VERTEX
  8
0
 10
369.174473
 20
619.872074
 42
0.012438
  0
VERTEX
  8
0
 10
374.060627
 20
617.197634
 42
0.069330
  0
VERTEX
  8
0
 10
376.873102
 20
616.210681
 42
0.218533
  0
VERTEX
  8
0
 10
378.349061
 20
616.558206
 42
0.231310
  0
VERTEX
  8
0
 10
379.000000
 20
617.889991
 42
0.141815
  0
VERTEX
  8
0
 10
378.404913
 20
619.945908
 42
0.008616
  0
VERTEX
  8
0
 10
374.853682
 20
625.357584
 42
0.010649
  0
VERTEX
  8
0
 10
371.148607
 20
630.555539
 42
0.094445
  0
VERTEX
  8
0
 10
369.083506
 20
632.448390
 42
-0.059139
  0
VERTEX
  8
0
 10
368.669051
 20
632.777902
 42
-0.050616
  0
VERTEX
  8
0
 10
368.318280
 20
633.211852
 42
-0.053074
  0
VERTEX
  8
0
 10
368.079279
 20
633.679342
 42
-0.091895
  0
VERTEX
  8
0
 10
368.000000
 20
634.107058
 42
-0.589206
  0
VERTEX
  8
0
 10
368.736594
 20
634.515128
 42
-0.012496
  0
VERTEX
  8
0
 10
373.048562
 20
631.665501
 42
-0.018400
  0
VERTEX
  8
0
 10
377.853898
 20
628.044489
 42
-0.020893
  0
VERTEX
  8
0
 10
382.172978
 20
624.223084
 42
0.025737
  0
VERTEX
  8
0
 10
386.270417
 20
620.667922
 42
0.262110
  0
VERTEX
  8
0
 10
388.415103
 20
620.342676
 42
0.277746
  0
VERTEX
  8
0
 10
389.719570
 20
622.000134
 42
0.028102
  0
VERTEX
  8
0
 10
390.078947
 20
627.218615
 42
-0.008408
  0
VERTEX
  8
0
 10
390.203926
 20
631.470804
 42
-0.650840
  0
VERTEX
  8
0
 10
390.680649
 20
631.656073
 42
-0.131936
  0
VERTEX
  8
0
 10
391.333126
 20
630.530052
 42
-0.002878
  0
VERTEX
  8
0
 10
392.956990
 20
624.352823
 42
0.024038
  0
VERTEX
  8
0
 10
393.458116
 20
622.729212
 42
0.029975
  0
VERTEX
  8
0
 10
394.083377
 20
621.280198
 42
0.030877
  0
VERTEX
  8
0
 10
394.736523
 20
620.162988
 42
0.154620
  0
VERTEX
  8
0
 10
395.296356
 20
619.716519
 42
0.109619
  0
VERTEX
  8
0
 10
396.144909
 20
619.589972
 42
0.008998
  0
VERTEX
  8
0
 10
398.389270
 20
619.788709
 42
0.011720
  0
VERTEX
  8
0
 10
401.083540
 20
620.140274
 42
0.008755
  0
VERTEX
  8
0
 10
404.035500
 20
620.649131
 42
-0.015159
  0
VERTEX
  8
0
 10
407.303917
 20
621.169534
 42
-0.016129
  0
VERTEX
  8
0
 10
410.531034
 20
621.478097
 42
-0.017118
  0
VERTEX
  8
0
 10
413.398271
 20
621.560807
 42
-0.041848
  0
VERTEX
  8
0
 10
415.500000
 20
621.373172
 42
0.000000
  0
VERTEX
  8
0
 10
419.500000
 20
620.675475
 42
0.000000
  0
VERTEX
  8
0
 10
412.924974
 20
619.567395
 42
0.026531
  0
VERTEX
  8
0
 10
407.435321
 20
618.339745
 42
0.072647
  0
VERTEX
  8
0
 10
403.812371
 20
616.730085
 42
0.113173
  0
VERTEX
  8
0
 10
401.746953
 20
614.651705
 42
0.140127
  0
VERTEX
  8
0
 10
401.000000
 20
612.038775
 42
0.171205
  0
VERTEX
  8
0
 10
401.962439
 20
609.310382
 42
0.026091
  0
VERTEX
  8
0
 10
405.872167
 20
604.945209
 42
0.018230
  0
VERTEX
  8
0
 10
412.492395
 20
598.756080
 42
0.004506
  0
VERTEX
  8
0
 10
423.803023
 20
589.107057
 42
-0.006115
  0
VERTEX
  8
0
 10
425.791284
 20
587.399802
 42
-0.010259
  0
VERTEX
  8
0
 10
427.413876
 20
585.911519
 42
-0.004187
  0
VERTEX
  8
0
 10
428.730085
 20
584.632317
 42
-0.415938
  0
VERTEX
  8
0
 10
428.730776
 20
584.397443
 42
-0.237174
  0
VERTEX
  8
0
 10
428.450140
 20
584.304550
 42
-0.003834
  0
VERTEX
  8
0
 10
426.757243
 20
584.566907
 42
-0.009095
  0
VERTEX
  8
0
 10
424.763278
 20
584.928944
 42
-0.005796
  0
VERTEX
  8
0
 10
422.457052
 20
585.419031
 42
0.007682
  0
VERTEX
  8
0
 10
412.581996
 20
587.478645
 42
0.096135
  0
VERTEX
  8
0
 10
408.781628
 20
587.473231
 42
0.776049
  0
VERTEX
  8
0
 10
408.729916
 20
586.578938
 42
0.012288
  0
VERTEX
  8
0
 10
416.615522
 20
584.276763
 42
-0.014908
  0
VERTEX
  8
0
 10
420.336472
 20
583.169254
 42
-0.011485
  0
VERTEX
  8
0
 10
424.327148
 20
581.748279
 42
-0.011647
  0
VERTEX
  8
0
 10
427.997852
 20
580.246546
 42
-0.027020
  0
VERTEX
  8
0
 10
430.655380
 20
578.911101
 42
-0.032482
  0
VERTEX
  8
0
 10
435.262486
 20
575.862118
 42
-0.014700
  0
VERTEX
  8
0
 10
440.897907
 20
571.314609
 42
-0.007545
  0
VERTEX
  8
0
 10
446.263282
 20
566.575932
 42
-0.211118
  0
VERTEX
  8
0
 10
447.000000
 20
564.908901
 42
-0.503993
  0
VERTEX
  8
0
 10
446.742408
 20
564.718262
 42
-0.025820
  0
VERTEX
  8
0
 10
445.604688
 20
565.131215
 42
-0.024127
  0
VERTEX
  8
0
 10
444.072713
 20
565.867561
 42
-0.012866
  0
VERTEX
  8
0
 10
442.250000
 20
566.916081
 42
0.037369
  0
VERTEX
  8
0
 10
436.952995
 20
569.627147
 42
0.037341
  0
VERTEX
  8
0
 10
431.310143
 20
571.520342
 42
0.035270
  0
VERTEX
  8
0
 10
425.156732
 20
572.630833
 42
0.027016
  0
VERTEX
  8
0
 10
418.329225
 20
573.000000
 42
0.032130
  0
VERTEX
  8
0
 10
411.197691
 20
572.541255
 42
0.053433
  0
VERTEX
  8
0
 10
405.347259
 20
571.139041
 42
0.049837
  0
VERTEX
  8
0
 10
399.653499
 20
568.447429
 42
0.024191
  0
VERTEX
  8
0
 10
392.955828
 20
563.967254
 42
0.079016
  0
VERTEX
  8
0
 10
377.193964
 20
547.879366
 42
0.022843
  0
VERTEX
  8
0
 10
358.314224
 20
518.539436
 42
0.023375
  0
VERTEX
  8
0
 10
340.781471
 20
484.809511
 42
0.032301
  0
VERTEX
  8
0
 10
328.510607
 20
452.987458
 42
0.000000
  0
VERTEX
  8
0
 10
326.784460
 20
447.474916
 42
0.000000
  0
VERTEX
  8
0
 10
330.390300
 20
441.322486
 42
0.057875
  0
VERTEX
  8
0
 10
340.266717
 20
428.215308
 42
0.042848
  0
VERTEX
  8
0
 10
353.876158
 20
416.187432
 42
0.042052
  0
VERTEX
  8
0
 10
369.668827
 20
406.415828
 42
0.049357
  0
VERTEX
  8
0
 10
386.067270
 20
400.029098
 42
0.042856
  0
VERTEX
  8
0
 10
397.948874
 20
397.779698
 42
0.035891
  0
VERTEX
  8
0
 10
410.777163
 20
397.398662
 42
0.037285
  0
VERTEX
  8
0
 10
422.743384
 20
398.800182
 42
0.070368
  0
VERTEX
  8
0
 10
431.915060
 20
401.958432
 42
0.093619
  0
VERTEX
  8
0
 10
440.494289
 20
408.600724
 42
0.024269
  0
VERTEX
  8
0
 10
451.484002
 20
422.281576
 42
0.025455
  0
VERTEX
  8
0
 10
461.758874
 20
438.056581
 42
0.041275
  0
VERTEX
  8
0
 10
468.627716
 20
452.500000
 42
-0.004763
  0
VERTEX
  8
0
 10
470.447042
 20
457.177655
 42
-0.742054
  0
VERTEX
  8
0
 10
470.823036
 20
457.145067
 42
-0.097759
  0
VERTEX
  8
0
 10
470.840083
 20
455.797297
 42
-0.001668
  0
VERTEX
  8
0
 10
469.470032
 20
448.500000
 42
-0.020007
  0
VERTEX
  8
0
 10
465.799460
 20
432.747637
 42
-0.013249
  0
VERTEX
  8
0
 10
460.391297
 20
414.977769
 42
-0.013312
  0
VERTEX
  8
0
 10
454.122502
 20
397.727040
 42
-0.022140
  0
VERTEX
  8
0
 10
447.824550
 20
383.603307
 42
-0.023067
  0
VERTEX
  8
0
 10
440.381611
 20
370.292337
 42
-0.041665
  0
VERTEX
  8
0
 10
432.934150
 20
360.274027
 42
-0.048674
  0
VERTEX
  8
0
 10
424.844669
 20
352.722913
 42
-0.049665
  0
VERTEX
  8
0
 10
415.500000
 20
346.935993
 42
-0.032614
  0
VERTEX
  8
0
 10
404.631177
 20
342.468079
 42
-0.042804
  0
VERTEX
  8
0
 10
394.210749
 20
339.926234
 42
-0.047907
  0
VERTEX
  8
0
 10
384.599392
 20
339.368524
 42
-0.067402
  0
VERTEX
  8
0
 10
376.149579
 20
340.839699
 42
-0.029621
  0
VERTEX
  8
0
 10
372.274336
 20
342.325863
 42
-0.055344
  0
VERTEX
  8
0
 10
369.389081
 20
344.039730
 42
-0.036079
  0
VERTEX
  8
0
 10
366.237713
 20
346.796480
 42
-0.006566
  0
VERTEX
  8
0
 10
360.849842
 20
352.388217
 42
0.023615
  0
VERTEX
  8
0
 10
353.866913
 20
359.157651
 42
0.039404
  0
VERTEX
  8
0
 10
347.323354
 20
364.069264
 42
0.048105
  0
VERTEX
  8
0
 10
341.298882
 20
367.121787
 42
0.087353
  0
VERTEX
  8
0
 10
335.901755
 20
368.207883
 42
-0.050583
  0
VERTEX
  8
0
 10
334.338293
 20
368.404975
 42
-0.036651
  0
VERTEX
  8
0
 10
332.660206
 20
368.923603
 42
-0.036139
  0
VERTEX
  8
0
 10
331.046198
 20
369.693848
 42
-0.044288
  0
VERTEX
  8
0
 10
329.673275
 20
370.645315
 42
0.035065
  0
VERTEX
  8
0
 10
328.422722
 20
371.546513
 42
0.030778
  0
VERTEX
  8
0
 10
327.004098
 20
372.308311
 42
0.032042
  0
VERTEX
  8
0
 10
325.633826
 20
372.835393
 42
0.075932
  0
VERTEX
  8
0
 10
324.556161
 20
373.000000
 42
-0.102881
  0
VERTEX
  8
0
 10
323.379274
 20
373.244748
 42
-0.067011
  0
VERTEX
  8
0
 10
322.187423
 20
373.965514
 42
-0.051308
  0
VERTEX
  8
0
 10
320.955687
 20
375.184628
 42
-0.025860
  0
VERTEX
  8
0
 10
319.655278
 20
376.944724
 42
0.064189
  0
VERTEX
  8
0
 10
316.461746
 20
380.639149
 42
0.055436
  0
VERTEX
  8
0
 10
312.282727
 20
383.616469
 42
0.053437
  0
VERTEX
  8
0
 10
307.392631
 20
385.692605
 42
0.051118
  0
VERTEX
  8
0
 10
302.099868
 20
386.724661
 42
-0.013903
  0
VERTEX
  8
0
 10
298.852009
 20
387.110468
 42
-0.063535
  0
VERTEX
  8
0
 10
297.025392
 20
387.621782
 42
-0.101382
  0
VERTEX
  8
0
 10
295.825150
 20
388.446286
 42
-0.069270
  0
VERTEX
  8
0
 10
294.849476
 20
389.788699
 42
0.132547
  0
VERTEX
  8
0
 10
291.925209
 20
392.904312
 42
0.069172
  0
VERTEX
  8
0
 10
287.017880
 20
395.068689
 42
0.066432
  0
VERTEX
  8
0
 10
281.441786
 20
395.880610
 42
0.094087
  0
VERTEX
  8
0
 10
276.516250
 20
395.006178
 42
-0.048967
  0
VERTEX
  8
0
 10
275.048690
 20
394.607175
 42
-0.094702
  0
VERTEX
  8
0
 10
273.836915
 20
394.632908
 42
-0.079733
  0
VERTEX
  8
0
 10
272.586538
 20
395.116737
 42
-0.027083
  0
VERTEX
  8
0
 10
270.953952
 20
396.192166
 42
0.092559
  0
VERTEX
  8
0
 10
267.089917
 20
398.068469
 42
0.054071
  0
VERTEX
  8
0
 10
261.991011
 20
398.888285
 42
0.053219
  0
VERTEX
  8
0
 10
256.713037
 20
398.597944
 42
0.077769
  0
VERTEX
  8
0
 10
252.297238
 20
397.151639
 42
0.047906
  0
VERTEX
  8
0
 10
248.984612
 20
395.040095
 42
0.040521
  0
VERTEX
  8
0
 10
245.927675
 20
392.225096
 42
0.041667
  0
VERTEX
  8
0
 10
243.668881
 20
389.328415
 42
0.145771
  0
VERTEX
  8
0
 10
243.000000
 20
387.082887
 42
-0.125187
  0
VERTEX
  8
0
 10
242.514524
 20
385.174270
 42
-0.003407
  0
VERTEX
  8
0
 10
238.315793
 20
377.578516
 42
-0.005430
  0
VERTEX
  8
0
 10
234.138771
 20
370.327712
 42
-0.062635
  0
VERTEX
  8
0
 10
232.131996
 20
367.734569
 42
-0.210002
  0
VERTEX
  8
0
 10
231.634159
 20
367.539703
 42
-0.041201
  0
VERTEX
  8
0
 10
230.657761
 20
367.660657
 42
-0.037319
  0
VERTEX
  8
0
 10
229.459861
 20
368.005387
 42
-0.026989
  0
VERTEX
  8
0
 10
228.184569
 20
368.557811
 42
-0.077950
  0
VERTEX
  8
0
 10
226.008932
 20
370.105526
 42
-0.166767
  0
VERTEX
  8
0
 10
225.093438
 20
371.924023
 42
-0.174579
  0
VERTEX
  8
0
 10
225.505886
 20
373.861219
 42
-0.086731
  0
VERTEX
  8
0
 10
227.199766
 20
375.759787
 42
0.058072
  0
VERTEX
  8
0
 10
233.886815
 20
382.445489
 42
0.070002
  0
VERTEX
  8
0
 10
238.372028
 20
390.105630
 42
0.082289
  0
VERTEX
  8
0
 10
240.086813
 20
397.572950
 42
0.143142
  0
VERTEX
  8
0
 10
238.692780
 20
403.724963
 42
0.075455
  0
VERTEX
  8
0
 10
236.919632
 20
406.019994
 42
0.034377
  0
VERTEX
  8
0
 10
233.997627
 20
408.449541
 42
0.034377
  0
VERTEX
  8
0
 10
230.734764
 20
410.477878
 42
0.067917
  0
VERTEX
  8
0
 10
227.876713
 20
411.527078
 42
-0.045586
  0
VERTEX
  8
0
 10
226.776004
 20
411.876406
 42
-0.057396
  0
VERTEX
  8
0
 10
225.845035
 20
412.400930
 42
-0.068755
  0
VERTEX
  8
0
 10
225.209620
 20
413.010992
 42
-0.168687
  0
VERTEX
  8
0
 10
225.000000
 20
413.614639
 42
0.119609
  0
VERTEX
  8
0
 10
224.471985
 20
415.790308
 42
0.069112
  0
VERTEX
  8
0
 10
222.911471
 20
418.003309
 42
0.064894
  0
VERTEX
  8
0
 10
220.671923
 20
419.847956
 42
0.075319
  0
VERTEX
  8
0
 10
218.141017
 20
420.945105
 42
0.023745
  0
VERTEX
  8
0
 10
216.342448
 20
421.330739
 42
0.009741
  0
VERTEX
  8
0
 10
213.871841
 20
421.689619
 42
0.009613
  0
VERTEX
  8
0
 10
211.200003
 20
421.972668
 42
0.012154
  0
VERTEX
  8
0
 10
208.720570
 20
422.126620
 42
-0.012204
  0
VERTEX
  8
0
 10
204.978480
 20
422.359348
 42
-0.110962
  0
VERTEX
  8
0
 10
203.429882
 20
422.851209
 42
-0.135797
  0
VERTEX
  8
0
 10
202.380522
 20
423.928439
 42
-0.021473
  0
VERTEX
  8
0
 10
201.058207
 20
426.601318
 42
0.068200
  0
VERTEX
  8
0
 10
198.986511
 20
429.960248
 42
0.091666
  0
VERTEX
  8
0
 10
196.256077
 20
432.255981
 42
0.082968
  0
VERTEX
  8
0
 10
192.667871
 20
433.568824
 42
0.046331
  0
VERTEX
  8
0
 10
188.024677
 20
434.000000
 42
0.070638
  0
VERTEX
  8
0
 10
179.861475
 20
432.840960
 42
0.057149
  0
VERTEX
  8
0
 10
171.689728
 20
429.422023
 42
0.055599
  0
VERTEX
  8
0
 10
164.287195
 20
424.120379
 42
0.058838
  0
VERTEX
  8
0
 10
158.392406
 20
417.408304
 42
0.000000
  0
VERTEX
  8
0
 10
154.529490
 20
411.799521
 42
0.000000
  0
VERTEX
  8
0
 10
148.014745
 20
418.691120
 42
-0.029860
  0
VERTEX
  8
0
 10
142.462269
 20
425.315546
 42
-0.021969
  0
VERTEX
  8
0
 10
137.100659
 20
433.255061
 42
-0.020569
  0
VERTEX
  8
0
 10
132.089800
 20
442.236483
 42
-0.018017
  0
VERTEX
  8
0
 10
127.591497
 20
452.000000
 42
-0.009596
  0
VERTEX
  8
0
 10
125.207651
 20
458.029260
 42
-0.042292
  0
VERTEX
  8
0
 10
124.178792
 20
461.706815
 42
-0.040320
  0
VERTEX
  8
0
 10
123.759722
 20
465.584176
 42
-0.008198
  0
VERTEX
  8
0
 10
123.685924
 20
472.500000
 42
-0.012014
  0
VERTEX
  8
0
 10
123.831445
 20
477.389402
 42
-0.009630
  0
VERTEX
  8
0
 10
124.215789
 20
482.642141
 42
-0.009854
  0
VERTEX
  8
0
 10
124.772445
 20
487.591150
 42
-0.019291
  0
VERTEX
  8
0
 10
125.444604
 20
491.500000
 42
-0.009372
  0
VERTEX
  8
0
 10
126.937533
 20
497.945380
 42
-0.006170
  0
VERTEX
  8
0
 10
128.884909
 20
505.304301
 42
-0.003855
  0
VERTEX
  8
0
 10
130.850912
 20
512.173665
 42
-0.058403
  0
VERTEX
  8
0
 10
131.822074
 20
514.450775
 42
-0.634381
  0
VERTEX
  8
0
 10
132.121457
 20
514.426881
 42
-0.014065
  0
VERTEX
  8
0
 10
132.738345
 20
512.639844
 42
-0.015339
  0
VERTEX
  8
0
 10
133.443488
 20
510.127103
 42
-0.007952
  0
VERTEX
  8
0
 10
134.177194
 20
506.950775
 42
0.028525
  0
VERTEX
  8
0
 10
136.462760
 20
498.632279
 42
0.038851
  0
VERTEX
  8
0
 10
139.511488
 20
491.478050
 42
0.040849
  0
VERTEX
  8
0
 10
143.489186
 20
485.163796
 42
0.037234
  0
VERTEX
  8
0
 10
148.554986
 20
479.367437
 42
0.091273
  0
VERTEX
  8
0
 10
163.657900
 20
469.121679
 42
0.102535
  0
VERTEX
  8
0
 10
180.807701
 20
465.472030
 42
0.106393
  0
VERTEX
  8
0
 10
197.498369
 20
468.971346
 42
0.105345
  0
VERTEX
  8
0
 10
211.339814
 20
479.033058
 42
-0.006867
  0
VERTEX
  8
0
 10
213.972207
 20
481.881251
 42
-0.063269
  0
VERTEX
  8
0
 10
215.272272
 20
482.942602
 42
-0.253137
  0
VERTEX
  8
0
 10
216.063589
 20
482.992064
 42
-0.200680
  0
VERTEX
  8
0
 10
216.651095
 20
482.350267
 42
0.021512
  0
VERTEX
  8
0
 10
220.369694
 20
473.256803
 42
0.029210
  0
VERTEX
  8
0
 10
224.539646
 20
465.431472
 42
0.030956
  0
VERTEX
  8
0
 10
229.374770
 20
458.511975
 42
0.029755
  0
VERTEX
  8
0
 10
235.087269
 20
452.145157
 42
0.032579
  0
VERTEX
  8
0
 10
243.708027
 20
444.661801
 42
0.071308
  0
VERTEX
  8
0
 10
251.332472
 20
440.423212
 42
0.066084
  0
VERTEX
  8
0
 10
260.206321
 20
438.317109
 42
0.024782
  0
VERTEX
  8
0
 10
273.000000
 20
437.657715
 42
0.030679
  0
VERTEX
  8
0
 10
287.798818
 20
438.537776
 42
0.050231
  0
VERTEX
  8
0
 10
300.042164
 20
441.289967
 42
0.056538
  0
VERTEX
  8
0
 10
310.426456
 20
446.108458
 42
0.054483
  0
VERTEX
  8
0
 10
319.610070
 20
453.181089
 42
0.054258
  0
VERTEX
  8
0
 10
326.534046
 20
461.447313
 42
0.053178
  0
VERTEX
  8
0
 10
331.572195
 20
471.063598
 42
0.055013
  0
VERTEX
  8
0
 10
334.335524
 20
481.188775
 42
0.067959
  0
VERTEX
  8
0
 10
334.538805
 20
490.958332
 42
0.052685
  0
VERTEX
  8
0
 10
333.008872
 20
497.794285
 42
0.048330
  0
VERTEX
  8
0
 10
330.054983
 20
504.372832
 42
0.042006
  0
VERTEX
  8
0
 10
325.475781
 20
511.029248
 42
0.025397
  0
VERTEX
  8
0
 10
319.038046
 20
518.117660
 42
0.011286
  0
VERTEX
  8
0
 10
313.994996
 20
522.911912
 42
0.028299
  0
VERTEX
  8
0
 10
310.052448
 20
526.106357
 42
0.029075
  0
VERTEX
  8
0
 10
305.837575
 20
528.785675
 42
0.012516
  0
VERTEX
  8
0
 10
299.936734
 20
531.880856
 42
0.020481
  0
VERTEX
  8
0
 10
289.714518
 20
536.410219
 42
0.035205
  0
VERTEX
  8
0
 10
280.834767
 20
539.213145
 42
0.035225
  0
VERTEX
  8
0
 10
271.653114
 20
540.741582
 42
0.020532
  0
VERTEX
  8
0
 10
260.500000
 20
541.338566
 42
0.015456
  0
VERTEX
  8
0
 10
250.962191
 20
541.162174
 42
0.043701
  0
VERTEX
  8
0
 10
244.369428
 20
540.254971
 42
0.052887
  0
VERTEX
  8
0
 10
238.770514
 20
538.338656
 42
0.032444
  0
VERTEX
  8
0
 10
232.644996
 20
534.989817
 42
-0.003260
  0
VERTEX
  8
0
 10
230.863661
 20
533.876348
 42
-0.005626
  0
VERTEX
  8
0
 10
229.365208
 20
532.976336
 42
-0.001516
  0
VERTEX
  8
0
 10
228.077894
 20
532.227949
 42
-0.581033
  0
VERTEX
  8
0
 10
228.002522
 20
532.272024
 42
-0.066250
  0
VERTEX
  8
0
 10
228.218308
 20
533.766797
 42
-0.000476
  0
VERTEX
  8
0
 10
231.684642
 20
545.976138
 42
-0.001986
  0
VERTEX
  8
0
 10
235.430668
 20
558.927583
 42
-0.001918
  0
VERTEX
  8
0
 10
239.322522
 20
572.000000
 42
0.001075
  0
VERTEX
  8
0
 10
244.988834
 20
590.915974
 42
0.012618
  0
VERTEX
  8
0
 10
246.993229
 20
598.341166
 42
0.030891
  0
VERTEX
  8
0
 10
247.872522
 20
603.266500
 42
0.027290
  0
VERTEX
  8
0
 10
248.186978
 20
608.471977
 42
0.036161
  0
VERTEX
  8
0
 10
247.861623
 20
613.355696
 42
0.067303
  0
VERTEX
  8
0
 10
246.792939
 20
617.169389
 42
0.069566
  0
VERTEX
  8
0
 10
244.779240
 20
620.479573
 42
0.041231
  0
VERTEX
  8
0
 10
241.564213
 20
623.809477
 42
0.058026
  0
VERTEX
  8
0
 10
237.938131
 20
626.314839
 42
0.055134
  0
VERTEX
  8
0
 10
233.771562
 20
627.971942
 42
0.052460
  0
VERTEX
  8
0
 10
229.150757
 20
628.734504
 42
0.043904
  0
VERTEX
  8
0
 10
224.180539
 20
628.590215
 42
-0.017986
  0
VERTEX
  8
0
 10
219.952798
 20
628.247840
 42
-0.635457
  0
VERTEX
  8
0
 10
219.601634
 20
628.916688
 42
-0.156158
  0
VERTEX
  8
0
 10
221.094620
 20
629.965247
 42
-0.009530
  0
VERTEX
  8
0
 10
226.392975
 20
631.508403
 42
-0.020572
  0
VERTEX
  8
0
 10
229.568157
 20
632.229157
 42
-0.019938
  0
VERTEX
  8
0
 10
232.825113
 20
632.695456
 42
-0.020051
  0
VERTEX
  8
0
 10
236.089761
 20
632.898897
 42
-0.021435
  0
VERTEX
  8
0
 10
239.287949
 20
632.832605
 42
-0.049358
  0
VERTEX
  8
0
 10
245.274792
 20
631.852783
 42
-0.083928
  0
VERTEX
  8
0
 10
249.878045
 20
629.750970
 42
-0.082298
  0
VERTEX
  8
0
 10
253.593835
 20
626.219198
 42
-0.045818
  0
VERTEX
  8
0
 10
256.893981
 20
620.896249
 42
0.004050
  0
VERTEX
  8
0
 10
258.691191
 20
617.371404
 42
0.068366
  0
VERTEX
  8
0
 10
259.444466
 20
616.307585
 42
0.590269
  0
VERTEX
  8
0
 10
259.840067
 20
616.407892
 42
0.064932
  0
VERTEX
  8
0
 10
259.990231
 20
617.590278
 42
0.055693
  0
VERTEX
  8
0
 10
259.819756
 20
619.070951
 42
0.017324
  0
VERTEX
  8
0
 10
259.242126
 20
621.237563
 42
0.017082
  0
VERTEX
  8
0
 10
258.423785
 20
623.631776
 42
0.018040
  0
VERTEX
  8
0
 10
257.457208
 20
625.920574
 42
-0.013666
  0
VERTEX
  8
0
 10
256.400895
 20
628.362055
 42
-0.037177
  0
VERTEX
  8
0
 10
255.832493
 20
630.156967
 42
-0.055767
  0
VERTEX
  8
0
 10
255.681144
 20
631.402243
 42
-0.262478
  0
VERTEX
  8
0
 10
256.016220
 20
632.010024
 42
-0.088497
  0
VERTEX
  8
0
 10
258.005204
 20
632.797632
 42
-0.002895
  0
VERTEX
  8
0
 10
266.439466
 20
634.460991
 42
-0.006234
  0
VERTEX
  8
0
 10
275.023567
 20
635.991638
 42
-0.011856
  0
VERTEX
  8
0
 10
281.969689
 20
636.972468
 42
-0.017896
  0
VERTEX
  8
0
 10
290.261860
 20
637.643755
 42
-0.014190
  0
VERTEX
  8
0
 10
299.250835
 20
637.793087
 42
-0.014030
  0
VERTEX
  8
0
 10
308.361287
 20
637.430058
 42
-0.016122
  0
SEQEND
  0
POLYLINE
  8
0
 66
1
 70
1
  0
VERTEX
  8
0
 10
238.465798
 20
621.593885
 42
-0.052370
  0
VERTEX
  8
0
 10
242.146867
 20
618.121410
 42
-0.100382
  0
VERTEX
  8
0
 10
244.120300
 20
614.591825
 42
-0.084721
  0
VERTEX
  8
0
 10
244.746946
 20
610.166877
 42
-0.029423
  0
VERTEX
  8
0
 10
244.183933
 20
603.725673
 42
-0.013544
  0
VERTEX
  8
0
 10
243.435116
 20
599.443091
 42
-0.003993
  0
VERTEX
  8
0
 10
242.057750
 20
592.922542
 42
-0.004006
  0
VERTEX
  8
0
 10
240.390879
 20
585.611851
 42
-0.004300
  0
VERTEX
  8
0
 10
238.644580
 20
578.500000
 42
0.000210
  0
VERTEX
  8
0
 10
236.712414
 20
570.900175
 42
0.000135
  0
VERTEX
  8
0
 10
234.478375
 20
562.087500
 42
0.000136
  0
VERTEX
  8
0
 10
232.297385
 20
553.464446
 42
0.000256
  0
VERTEX
  8
0
 10
230.541704
 20
546.500000
 42
-0.002089
  0
VERTEX
  8
0
 10
229.049846
 20
540.672308
 42
-0.003104
  0
VERTEX
  8
0
 10
227.690561
 20
535.583089
 42
-0.001369
  0
VERTEX
  8
0
 10
226.491806
 20
531.250735
 42
-0.062655
  0
VERTEX
  8
0
 10
226.134244
 20
530.399877
 42
-0.015562
  0
VERTEX
  8
0
 10
225.706012
 20
529.707793
 42
-0.001377
  0
VERTEX
  8
0
 10
224.566644
 20
527.998636
 42
-0.001799
  0
VERTEX
  8
0
 10
223.194434
 20
525.968263
 42
-0.001401
  0
VERTEX
  8
0
 10
221.688372
 20
523.770293
 42
0.033795
  0
VERTEX
  8
0
 10
218.167540
 20
517.842563
 42
0.053212
  0
VERTEX
  8
0
 10
216.072696
 20
512.312025
 42
0.044828
  0
VERTEX
  8
0
 10
214.982864
 20
505.813481
 42
0.017142
  0
VERTEX
  8
0
 10
214.594858
 20
496.641992
 42
0.000000
  0
VERTEX
  8
0
 10
214.500000
 20
484.783984
 42
0.000000
  0
VERTEX
  8
0
 10
210.819964
 20
480.552625
 42
-0.037141
  0
VERTEX
  8
0
 10
208.860874
 20
478.611757
 42
-0.018215
  0
VERTEX
  8
0
 10
206.106652
 20
476.429477
 42
-0.017550
  0
VERTEX
  8
0
 10
202.973678
 20
474.292849
 42
-0.019807
  0
VERTEX
  8
0
 10
199.819964
 20
472.471101
 42
-0.014495
  0
VERTEX
  8
0
 10
195.512131
 20
470.362331
 42
-0.039661
  0
VERTEX
  8
0
 10
192.326891
 20
469.210589
 42
-0.039485
  0
VERTEX
  8
0
 10
188.991748
 20
468.573494
 42
-0.014261
  0
VERTEX
  8
0
 10
184.178772
 20
468.181328
 42
-0.086554
  0
VERTEX
  8
0
 10
167.400950
 20
470.202630
 42
-0.098896
  0
VERTEX
  8
0
 10
153.155206
 20
477.796117
 42
-0.094568
  0
VERTEX
  8
0
 10
142.465620
 20
490.607793
 42
-0.072418
  0
VERTEX
  8
0
 10
135.988559
 20
507.702048
 42
-0.005555
  0
VERTEX
  8
0
 10
135.242225
 20
511.264815
 42
-0.006314
  0
VERTEX
  8
0
 10
134.608351
 20
514.694478
 42
-0.005778
  0
VERTEX
  8
0
 10
134.140898
 20
517.617582
 42
-0.034728
  0
VERTEX
  8
0
 10
134.021642
 20
519.151496
 42
-0.090097
  0
VERTEX
  8
0
 10
134.669155
 20
522.888962
 42
-0.006878
  0
VERTEX
  8
0
 10
138.335706
 20
532.483886
 42
-0.010380
  0
VERTEX
  8
0
 10
142.546384
 20
542.456256
 42
-0.018170
  0
VERTEX
  8
0
 10
146.497840
 20
550.500000
 42
-0.039457
  0
VERTEX
  8
0
 10
162.113989
 20
574.765613
 42
-0.033315
  0
VERTEX
  8
0
 10
182.189666
 20
597.779886
 42
-0.034147
  0
VERTEX
  8
0
 10
202.871168
 20
615.868430
 42
-0.101819
  0
VERTEX
  8
0
 10
219.745923
 20
623.966060
 42
-0.046050
  0
VERTEX
  8
0
 10
224.936467
 20
624.763483
 42
-0.046647
  0
VERTEX
  8
0
 10
230.162439
 20
624.591893
 42
-0.050056
  0
VERTEX
  8
0
 10
234.861503
 20
623.511070
 42
-0.081555
  0
SEQEND
  0
POLYLINE
  8
0
 66
1
 70
1
  0
VERTEX
  8
0
 10
428.320401
 20
568.504764
 42
-0.026832
  0
VERTEX
  8
0
 10
434.087202
 20
566.667305
 42
-0.038819
  0
VERTEX
  8
0
 10
438.924495
 20
564.391730
 42
-0.037625
  0
VERTEX
  8
0
 10
443.460537
 20
561.338004
 42
-0.023247
  0
VERTEX
  8
0
 10
448.320524
 20
557.124885
 42
-0.020908
  0
VERTEX
  8
0
 10
453.571113
 20
551.691342
 42
-0.036440
  0
VERTEX
  8
0
 10
457.379166
 20
546.719524
 42
-0.034133
  0
VERTEX
  8
0
 10
460.583254
 20
541.025234
 42
-0.015966
  0
VERTEX
  8
0
 10
463.975716
 20
533.269982
 42
-0.024689
  0
VERTEX
  8
0
 10
467.445270
 20
523.175651
 42
-0.022335
  0
VERTEX
  8
0
 10
470.037036
 20
512.447016
 42
-0.021104
  0
VERTEX
  8
0
 10
471.778457
 20
500.937895
 42
-0.017168
  0
VERTEX
  8
0
 10
472.695982
 20
488.500000
 42
-0.005476
  0
VERTEX
  8
0
 10
472.947207
 20
479.640951
 42
-0.030878
  0
VERTEX
  8
0
 10
472.737578
 20
474.916128
 42
-0.035839
  0
VERTEX
  8
0
 10
471.954006
 20
470.553676
 42
-0.008967
  0
VERTEX
  8
0
 10
470.041639
 20
463.570608
 42
-0.032781
  0
VERTEX
  8
0
 10
464.492612
 20
448.405573
 42
-0.030376
  0
VERTEX
  8
0
 10
456.886453
 20
433.689629
 42
-0.031050
  0
VERTEX
  8
0
 10
447.765926
 20
420.354226
 42
-0.039219
  0
VERTEX
  8
0
 10
437.689079
 20
409.325755
 42
-0.014259
  0
VERTEX
  8
0
 10
434.129901
 20
406.181736
 42
-0.036342
  0
VERTEX
  8
0
 10
431.333313
 20
404.175188
 42
-0.042433
  0
VERTEX
  8
0
 10
428.544658
 20
402.776469
 42
-0.026641
  0
VERTEX
  8
0
 10
425.087805
 20
401.604674
 42
-0.074030
  0
VERTEX
  8
0
 10
405.707169
 20
399.154410
 42
-0.061821
  0
VERTEX
  8
0
 10
385.161326
 20
402.165409
 42
-0.059564
  0
VERTEX
  8
0
 10
365.251259
 20
410.302735
 42
-0.058970
  0
VERTEX
  8
0
 10
347.746616
 20
422.926193
 42
-0.027622
  0
VERTEX
  8
0
 10
342.465275
 20
428.340339
 42
-0.014249
  0
VERTEX
  8
0
 10
336.445051
 20
435.645680
 42
-0.011059
  0
VERTEX
  8
0
 10
331.091720
 20
442.856163
 42
-0.092922
  0
VERTEX
  8
0
 10
329.405157
 20
446.521862
 42
-0.157085
  0
VERTEX
  8
0
 10
329.941345
 20
454.668960
 42
-0.008417
  0
VERTEX
  8
0
 10
340.015602
 20
478.889168
 42
-0.014161
  0
VERTEX
  8
0
 10
351.890495
 20
504.157019
 42
-0.021583
  0
VERTEX
  8
0
 10
363.738287
 20
525.297999
 42
-0.013102
  0
VERTEX
  8
0
 10
369.906681
 20
534.709525
 42
-0.011232
  0
VERTEX
  8
0
 10
376.874816
 20
544.289985
 42
-0.011416
  0
VERTEX
  8
0
 10
383.616938
 20
552.728285
 42
-0.030494
  0
VERTEX
  8
0
 10
388.908085
 20
558.318442
 42
-0.064423
  0
VERTEX
  8
0
 10
397.439579
 20
564.450872
 42
-0.060484
  0
VERTEX
  8
0
 10
407.431769
 20
568.369550
 42
-0.060775
  0
VERTEX
  8
0
 10
418.024257
 20
569.770755
 42
-0.066328
  0
SEQEND
  0
POLYLINE
  8
0
 66
1
 70
1
  0
VERTEX
  8
0
 10
285.850594
 20
533.149057
 42
-0.024068
  0
VERTEX
  8
0
 10
294.839278
 20
529.602747
 42
-0.029904
  0
VERTEX
  8
0
 10
302.794132
 20
525.423893
 42
-0.030974
  0
VERTEX
  8
0
 10
309.959869
 20
520.464360
 42
-0.029492
  0
VERTEX
  8
0
 10
316.582900
 20
514.581164
 42
-0.046206
  0
VERTEX
  8
0
 10
324.426867
 20
505.138420
 42
-0.076366
  0
VERTEX
  8
0
 10
328.911806
 20
495.815648
 42
-0.082068
  0
VERTEX
  8
0
 10
330.207546
 20
486.070516
 42
-0.062052
  0
VERTEX
  8
0
 10
328.532845
 20
475.389507
 42
-0.046418
  0
VERTEX
  8
0
 10
325.502261
 20
467.627617
 42
-0.041894
  0
VERTEX
  8
0
 10
321.003609
 20
460.269508
 42
-0.043140
  0
VERTEX
  8
0
 10
315.513895
 20
453.994085
 42
-0.059010
  0
VERTEX
  8
0
 10
309.532966
 20
449.466452
 42
-0.057658
  0
VERTEX
  8
0
 10
301.242253
 20
445.814627
 42
-0.027980
  0
VERTEX
  8
0
 10
289.988758
 20
443.015722
 42
-0.027672
  0
VERTEX
  8
0
 10
278.043570
 20
441.423727
 42
-0.041156
  0
VERTEX
  8
0
 10
267.500000
 20
441.477515
 42
-0.014768
  0
VERTEX
  8
0
 10
259.488173
 20
442.418397
 42
-0.042449
  0
VERTEX
  8
0
 10
254.043323
 20
443.700642
 42
-0.053532
  0
VERTEX
  8
0
 10
249.635146
 20
445.685589
 42
-0.037070
  0
VERTEX
  8
0
 10
245.131581
 20
448.794239
 42
-0.046576
  0
VERTEX
  8
0
 10
233.874864
 20
459.739145
 42
-0.056732
  0
VERTEX
  8
0
 10
225.664389
 20
471.922136
 42
-0.059566
  0
VERTEX
  8
0
 10
220.690254
 20
485.109813
 42
-0.060496
  0
VERTEX
  8
0
 10
219.000000
 20
499.028598
 42
-0.060911
  0
VERTEX
  8
0
 10
220.451007
 20
510.895280
 42
-0.080847
  0
VERTEX
  8
0
 10
224.726151
 20
520.876272
 42
-0.083108
  0
VERTEX
  8
0
 10
231.833297
 20
528.788204
 42
-0.068606
  0
VERTEX
  8
0
 10
241.593052
 20
534.586850
 42
-0.025899
  0
VERTEX
  8
0
 10
245.478820
 20
535.993455
 42
-0.048091
  0
VERTEX
  8
0
 10
248.762037
 20
536.657020
 42
-0.028246
  0
VERTEX
  8
0
 10
253.106632
 20
536.860655
 42
-0.004059
  0
VERTEX
  8
0
 10
262.000000
 20
536.702702
 42
-0.005825
  0
VERTEX
  8
0
 10
270.565946
 20
536.381094
 42
-0.024688
  0
VERTEX
  8
0
 10
275.671401
 20
535.876355
 42
-0.031306
  0
VERTEX
  8
0
 10
280.101711
 20
534.929751
 42
-0.013642
  0
SEQEND
  0
POLYLINE
  8
0
 66
1
 70
1
  0
VERTEX
  8
0
 10
121.465454
 20
455.250000
 42
0.033811
  0
VERTEX
  8
0
 10
121.980254
 20
453.647220
 42
0.004895
  0
VERTEX
  8
0
 10
123.279539
 20
450.469827
 42
0.005528
  0
VERTEX
  8
0
 10
124.896549
 20
446.739338
 42
0.004706
  0
VERTEX
  8
0
 10
126.682979
 20
442.838772
 42
0.000000
  0
VERTEX
  8
0
 10
131.218235
 20
433.177544
 42
0.000000
  0
VERTEX
  8
0
 10
128.199515
 20
428.838772
 42
-0.019626
  0
VERTEX
  8
0
 10
124.090388
 20
423.401020
 42
-0.010942
  0
VERTEX
  8
0
 10
118.689771
 20
417.095477
 42
-0.007118
  0
VERTEX
  8
0
 10
110.882927
 20
408.620189
 42
-0.002017
  0
VERTEX
  8
0
 10
98.495375
 20
395.655503
 42
0.000000
  0
VERTEX
  8
0
 10
81.053455
 20
377.547776
 42
0.000000
  0
VERTEX
  8
0
 10
96.489954
 20
408.523888
 42
0.001931
  0
VERTEX
  8
0
 10
102.677578
 20
421.061516
 42
0.002198
  0
VERTEX
  8
0
 10
108.504346
 20
433.117782
 42
0.001992
  0
VERTEX
  8
0
 10
113.366275
 20
443.396633
 42
0.012312
  0
VERTEX
  8
0
 10
115.713226
 20
448.749411
 42
-0.005559
  0
VERTEX
  8
0
 10
117.211155
 20
452.295235
 42
-0.008918
  0
VERTEX
  8
0
 10
118.576103
 20
455.281980
 42
-0.003394
  0
VERTEX
  8
0
 10
119.794901
 20
457.784066
 42
-0.284797
  0
VERTEX
  8
0
 10
120.141592
 20
457.999411
 42
-0.254871
  0
VERTEX
  8
0
 10
120.430447
 20
457.842284
 42
-0.031195
  0
VERTEX
  8
0
 10
120.795133
 20
457.192014
 42
-0.030778
  0
VERTEX
  8
0
 10
121.157441
 20
456.303558
 42
-0.020623
  0
SEQEND
  0
POLYLINE
  8
0
 66
1
 70
1
  0
VERTEX
  8
0
 10
479.011090
 20
432.000000
 42
0.013794
  0
VERTEX
  8
0
 10
485.219663
 20
413.902021
 42
0.008456
  0
VERTEX
  8
0
 10
493.480789
 20
392.913009
 42
0.008456
  0
VERTEX
  8
0
 10
502.448422
 20
372.212039
 42
0.013774
  0
VERTEX
  8
0
 10
510.831947
 20
355.000000
 42
-0.000304
  0
VERTEX
  8
0
 10
523.687592
 20
330.318209
 42
-0.001078
  0
VERTEX
  8
0
 10
531.888814
 20
314.465770
 42
-0.001657
  0
VERTEX
  8
0
 10
537.742194
 20
302.998310
 42
-0.002937
  0
VERTEX
  8
0
 10
542.480963
 20
293.500000
 42
-0.012232
  0
VERTEX
  8
0
 10
547.042669
 20
283.617028
 42
-0.013207
  0
VERTEX
  8
0
 10
550.993598
 20
273.769831
 42
-0.013935
  0
VERTEX
  8
0
 10
553.985727
 20
264.956238
 42
-0.037358
  0
VERTEX
  8
0
 10
555.461588
 20
258.500000
 42
-0.006666
  0
VERTEX
  8
0
 10
555.780763
 20
256.180074
 42
-0.734927
  0
VERTEX
  8
0
 10
555.588704
 20
256.092777
 42
-0.086213
  0
VERTEX
  8
0
 10
555.188299
 20
256.734503
 42
-0.001548
  0
VERTEX
  8
0
 10
553.672311
 20
260.500000
 42
0.013524
  0
VERTEX
  8
0
 10
550.872350
 20
267.000852
 42
0.009114
  0
VERTEX
  8
0
 10
547.343605
 20
274.269359
 42
0.009135
  0
VERTEX
  8
0
 10
543.727875
 20
281.073305
 42
0.021221
  0
VERTEX
  8
0
 10
540.712922
 20
286.000000
 42
0.028549
  0
VERTEX
  8
0
 10
535.421539
 20
292.979465
 42
0.011211
  0
VERTEX
  8
0
 10
527.383540
 20
301.994045
 42
0.007010
  0
VERTEX
  8
0
 10
515.105711
 20
314.792638
 42
0.001754
  0
VERTEX
  8
0
 10
494.699424
 20
335.331384
 42
-0.003405
  0
VERTEX
  8
0
 10
474.749005
 20
355.544305
 42
-0.017185
  0
VERTEX
  8
0
 10
464.082929
 20
367.280012
 42
-0.030960
  0
VERTEX
  8
0
 10
457.961573
 20
375.477321
 42
-0.079287
  0
VERTEX
  8
0
 10
454.941670
 20
382.216621
 42
-0.050540
  0
VERTEX
  8
0
 10
454.529209
 20
384.739747
 42
-0.068215
  0
VERTEX
  8
0
 10
454.702692
 20
387.043139
 42
-0.037997
  0
VERTEX
  8
0
 10
455.599706
 20
390.078410
 42
-0.006166
  0
VERTEX
  8
0
 10
457.857330
 20
395.803091
 42
0.013967
  0
VERTEX
  8
0
 10
461.165865
 20
404.591859
 42
0.009774
  0
VERTEX
  8
0
 10
464.420383
 20
414.662945
 42
0.009417
  0
VERTEX
  8
0
 10
467.425423
 20
425.346991
 42
0.009789
  0
VERTEX
  8
0
 10
469.984672
 20
436.000000
 42
-0.001593
  0
VERTEX
  8
0
 10
470.828407
 20
439.784126
 42
-0.001982
  0
VERTEX
  8
0
 10
471.638043
 20
443.296875
 42
-0.001611
  0
VERTEX
  8
0
 10
472.338951
 20
446.241073
 42
-0.015027
  0
VERTEX
  8
0
 10
472.683290
 20
447.500000
 42
0.000000
  0
VERTEX
  8
0
 10
473.295481
 20
449.500000
 42
0.000000
  0
VERTEX
  8
0
 10
474.043892
 20
447.500000
 42
-0.011286
  0
VERTEX
  8
0
 10
474.514566
 20
446.150150
 42
-0.000702
  0
VERTEX
  8
0
 10
475.811726
 20
442.121875
 42
-0.001039
  0
VERTEX
  8
0
 10
477.340603
 20
437.316726
 42
-0.000770
  0
SEQEND
  0
POLYLINE
  8
0
 66
1
 70
1
  0
VERTEX
  8
0
 10
137.320237
 20
424.572891
 42
0.020398
  0
VERTEX
  8
0
 10
139.130621
 20
422.073762
 42
0.009741
  0
VERTEX
  8
0
 10
141.647590
 20
419.006613
 42
0.009638
  0
VERTEX
  8
0
 10
144.404819
 20
415.900375
 42
0.013534
  0
VERTEX
  8
0
 10
146.991561
 20
413.244903
 42
0.000000
  0
VERTEX
  8
0
 10
153.059488
 20
407.344023
 42
0.000000
  0
VERTEX
  8
0
 10
149.449373
 20
396.251703
 42
-0.015794
  0
VERTEX
  8
0
 10
147.352384
 20
390.439095
 42
-0.013807
  0
VERTEX
  8
0
 10
144.803327
 20
384.500131
 42
-0.012616
  0
VERTEX
  8
0
 10
141.699931
 20
378.209052
 42
-0.009031
  0
VERTEX
  8
0
 10
137.927704
 20
371.329691
 42
0.002478
  0
VERTEX
  8
0
 10
134.894724
 20
365.966433
 42
0.003851
  0
VERTEX
  8
0
 10
132.337797
 20
361.308347
 42
0.001205
  0
VERTEX
  8
0
 10
130.166164
 20
357.255541
 42
0.120620
  0
VERTEX
  8
0
 10
130.008075
 20
356.634894
 42
-0.104477
  0
VERTEX
  8
0
 10
129.867256
 20
355.997791
 42
-0.000792
  0
VERTEX
  8
0
 10
127.646732
 20
351.121543
 42
-0.002904
  0
VERTEX
  8
0
 10
125.055174
 20
345.540277
 42
-0.001855
  0
VERTEX
  8
0
 10
121.980799
 20
339.080869
 42
0.006773
  0
VERTEX
  8
0
 10
117.971941
 20
330.440042
 42
0.013231
  0
VERTEX
  8
0
 10
115.054739
 20
323.430683
 42
0.015456
  0
VERTEX
  8
0
 10
112.823501
 20
317.062609
 42
0.014682
  0
VERTEX
  8
0
 10
110.948024
 20
310.459515
 42
0.033423
  0
VERTEX
  8
0
 10
107.848588
 20
293.480765
 42
0.041082
  0
VERTEX
  8
0
 10
107.339411
 20
277.383560
 42
0.044208
  0
VERTEX
  8
0
 10
109.421522
 20
262.485247
 42
0.052667
  0
VERTEX
  8
0
 10
114.050231
 20
249.078963
 42
0.000000
  0
VERTEX
  8
0
 10
117.101902
 20
242.557693
 42
0.000000
  0
VERTEX
  8
0
 10
109.300951
 20
235.309374
 42
-0.023505
  0
VERTEX
  8
0
 10
96.913082
 20
224.839348
 42
-0.079488
  0
VERTEX
  8
0
 10
87.625515
 20
219.813083
 42
-0.122348
  0
VERTEX
  8
0
 10
79.565713
 20
219.053870
 42
-0.101347
  0
VERTEX
  8
0
 10
71.450469
 20
222.030612
 42
-0.089634
  0
VERTEX
  8
0
 10
66.535462
 20
226.450115
 42
-0.046628
  0
VERTEX
  8
0
 10
62.095864
 20
233.430902
 42
-0.037119
  0
VERTEX
  8
0
 10
58.103143
 20
242.899423
 42
-0.020296
  0
VERTEX
  8
0
 10
54.567591
 20
255.000000
 42
-0.005625
  0
VERTEX
  8
0
 10
52.467807
 20
263.870752
 42
-0.021531
  0
VERTEX
  8
0
 10
51.461894
 20
269.458138
 42
-0.024406
  0
VERTEX
  8
0
 10
51.003258
 20
274.761408
 42
-0.008779
  0
VERTEX
  8
0
 10
50.852409
 20
282.338203
 42
-0.031793
  0
VERTEX
  8
0
 10
51.655156
 20
295.435405
 42
-0.017114
  0
VERTEX
  8
0
 10
54.217477
 20
311.414278
 42
-0.012247
  0
VERTEX
  8
0
 10
57.527359
 20
326.375828
 42
-0.136638
  0
VERTEX
  8
0
 10
60.499732
 20
331.642589
 42
0.038050
  0
VERTEX
  8
0
 10
61.073846
 20
332.311430
 42
0.034771
  0
VERTEX
  8
0
 10
61.559296
 20
333.079309
 42
0.036578
  0
VERTEX
  8
0
 10
61.894813
 20
333.828373
 42
0.087219
  0
VERTEX
  8
0
 10
62.000000
 20
334.426793
 42
-0.101418
  0
VERTEX
  8
0
 10
62.452126
 20
336.632899
 42
-0.002538
  0
VERTEX
  8
0
 10
66.553853
 20
346.086620
 42
-0.005315
  0
VERTEX
  8
0
 10
70.601316
 20
355.028006
 42
-0.029477
  0
VERTEX
  8
0
 10
73.104677
 20
359.669371
 42
-0.029206
  0
VERTEX
  8
0
 10
76.943913
 20
365.139494
 42
-0.011479
  0
VERTEX
  8
0
 10
82.831927
 20
372.225479
 42
-0.009532
  0
VERTEX
  8
0
 10
90.580646
 20
380.791512
 42
-0.005227
  0
VERTEX
  8
0
 10
100.378207
 20
391.000000
 42
0.005223
  0
VERTEX
  8
0
 10
111.398083
 20
402.481892
 42
0.009284
  0
VERTEX
  8
0
 10
120.196169
 20
412.197956
 42
0.010781
  0
VERTEX
  8
0
 10
126.827293
 20
420.139283
 42
0.035628
  0
VERTEX
  8
0
 10
130.690083
 20
425.750000
 42
-0.004309
  0
VERTEX
  8
0
 10
131.667432
 20
427.379228
 42
-0.006891
  0
VERTEX
  8
0
 10
132.533053
 20
428.751562
 42
-0.002190
  0
VERTEX
  8
0
 10
133.297693
 20
429.916373
 42
-0.251490
  0
VERTEX
  8
0
 10
133.453442
 20
430.000000
 42
-0.241214
  0
VERTEX
  8
0
 10
133.615621
 20
429.916926
 42
-0.001240
  0
VERTEX
  8
0
 10
134.697965
 20
428.405787
 42
-0.005081
  0
VERTEX
  8
0
 10
135.919832
 20
426.653466
 42
-0.003153
  0
SEQEND
  0
POLYLINE
  8
0
 66
1
 70
1
  0
VERTEX
  8
0
 10
194.075139
 20
428.718197
 42
-0.036279
  0
VERTEX
  8
0
 10
194.797307
 20
428.070835
 42
-0.014876
  0
VERTEX
  8
0
 10
195.683086
 20
427.096231
 42
-0.014627
  0
VERTEX
  8
0
 10
196.575876
 20
425.989225
 42
-0.018162
  0
VERTEX
  8
0
 10
197.337103
 20
424.907269
 42
0.000000
  0
VERTEX
  8
0
 10
199.023927
 20
422.314538
 42
0.000000
  0
VERTEX
  8
0
 10
194.891649
 20
420.451140
 42
0.054238
  0
VERTEX
  8
0
 10
191.327711
 20
418.353365
 42
0.020840
  0
VERTEX
  8
0
 10
186.861165
 20
414.726287
 42
0.014362
  0
VERTEX
  8
0
 10
182.762655
 20
410.889367
 42
0.200012
  0
VERTEX
  8
0
 10
182.000000
 20
409.059113
 42
0.527835
  0
VERTEX
  8
0
 10
182.299959
 20
408.854136
 42
0.019126
  0
VERTEX
  8
0
 10
183.804712
 20
409.508360
 42
0.020390
  0
VERTEX
  8
0
 10
185.786275
 20
410.563114
 42
0.010970
  0
VERTEX
  8
0
 10
188.143701
 20
412.014482
 42
-0.022748
  0
VERTEX
  8
0
 10
193.281882
 20
415.013335
 42
-0.046494
  0
VERTEX
  8
0
 10
197.595336
 20
416.785874
 42
-0.048774
  0
VERTEX
  8
0
 10
202.026093
 20
417.681740
 42
-0.027634
  0
VERTEX
  8
0
 10
207.500000
 20
417.937981
 42
-0.039236
  0
VERTEX
  8
0
 10
214.324046
 20
417.343408
 42
-0.089535
  0
VERTEX
  8
0
 10
219.172827
 20
415.606714
 42
-0.375996
  0
VERTEX
  8
0
 10
219.839762
 20
413.653101
 42
-0.233923
  0
VERTEX
  8
0
 10
217.899777
 20
411.948487
 42
0.064240
  0
VERTEX
  8
0
 10
214.437824
 20
410.526931
 42
0.016391
  0
VERTEX
  8
0
 10
209.260233
 20
407.347444
 42
0.017266
  0
VERTEX
  8
0
 10
204.196329
 20
403.747403
 42
0.044555
  0
VERTEX
  8
0
 10
200.891695
 20
400.720278
 42
0.019265
  0
VERTEX
  8
0
 10
198.791120
 20
398.234577
 42
0.113224
  0
VERTEX
  8
0
 10
198.072041
 20
396.697630
 42
0.669368
  0
VERTEX
  8
0
 10
198.518600
 20
396.390037
 42
0.042979
  0
VERTEX
  8
0
 10
200.250000
 20
397.740653
 42
-0.053218
  0
VERTEX
  8
0
 10
204.471035
 20
400.896817
 42
-0.020606
  0
VERTEX
  8
0
 10
210.907154
 20
404.367068
 42
-0.018701
  0
VERTEX
  8
0
 10
217.400583
 20
407.234968
 42
-0.093971
  0
VERTEX
  8
0
 10
221.282119
 20
407.985934
 42
-0.079336
  0
VERTEX
  8
0
 10
226.557375
 20
407.163709
 42
-0.075714
  0
VERTEX
  8
0
 10
231.408077
 20
404.735616
 42
-0.085532
  0
VERTEX
  8
0
 10
234.824481
 20
401.315864
 42
-0.160099
  0
VERTEX
  8
0
 10
235.956107
 20
397.615141
 42
-0.062562
  0
VERTEX
  8
0
 10
235.534940
 20
394.745186
 42
-0.031780
  0
VERTEX
  8
0
 10
234.336092
 20
391.292636
 42
-0.030286
  0
VERTEX
  8
0
 10
232.584043
 20
387.741198
 42
-0.033199
  0
VERTEX
  8
0
 10
230.462707
 20
384.539994
 42
-0.004977
  0
VERTEX
  8
0
 10
228.534319
 20
382.063268
 42
-0.132052
  0
VERTEX
  8
0
 10
227.865827
 20
381.568968
 42
-0.398821
  0
VERTEX
  8
0
 10
227.383882
 20
381.764187
 42
-0.034168
  0
VERTEX
  8
0
 10
226.871827
 20
383.130198
 42
-0.013088
  0
VERTEX
  8
0
 10
226.558424
 20
384.288891
 42
-0.005578
  0
VERTEX
  8
0
 10
226.197106
 20
385.854399
 42
-0.005515
  0
VERTEX
  8
0
 10
225.848595
 20
387.533590
 42
-0.007213
  0
VERTEX
  8
0
 10
225.569173
 20
389.076267
 42
0.028825
  0
VERTEX
  8
0
 10
225.227652
 20
390.586530
 42
0.023057
  0
VERTEX
  8
0
 10
224.693086
 20
392.167102
 42
0.023617
  0
VERTEX
  8
0
 10
224.059959
 20
393.586884
 42
0.053155
  0
VERTEX
  8
0
 10
223.421738
 20
394.576267
 42
0.058839
  0
VERTEX
  8
0
 10
222.579318
 20
395.399934
 42
0.537923
  0
VERTEX
  8
0
 10
222.177944
 20
395.262252
 42
0.078659
  0
VERTEX
  8
0
 10
222.071587
 20
394.161291
 42
0.003553
  0
VERTEX
  8
0
 10
222.329828
 20
390.358112
 42
-0.021909
  0
VERTEX
  8
0
 10
222.419188
 20
387.485022
 42
-0.011242
  0
VERTEX
  8
0
 10
222.292353
 20
383.883388
 42
-0.011151
  0
VERTEX
  8
0
 10
221.995058
 20
380.174465
 42
-0.016493
  0
VERTEX
  8
0
 10
221.555018
 20
376.941277
 42
-0.012841
  0
VERTEX
  8
0
 10
220.803774
 20
373.116250
 42
-0.043379
  0
VERTEX
  8
0
 10
220.036458
 20
370.690126
 42
-0.063874
  0
VERTEX
  8
0
 10
219.052056
 20
368.973209
 42
-0.062453
  0
VERTEX
  8
0
 10
217.659649
 20
367.545601
 42
0.042420
  0
VERTEX
  8
0
 10
215.686970
 20
365.678435
 42
0.158109
  0
VERTEX
  8
0
 10
215.007372
 20
364.133691
 42
0.399585
  0
VERTEX
  8
0
 10
215.605051
 20
363.362732
 42
0.116733
  0
VERTEX
  8
0
 10
217.250000
 20
363.496888
 42
-0.031285
  0
VERTEX
  8
0
 10
220.085562
 20
364.224672
 42
-0.020548
  0
VERTEX
  8
0
 10
223.420801
 20
364.720558
 42
-0.011726
  0
VERTEX
  8
0
 10
226.532620
 20
364.979614
 42
-0.431782
  0
VERTEX
  8
0
 10
227.000000
 20
364.539294
 42
-0.142346
  0
VERTEX
  8
0
 10
226.508627
 20
362.848288
 42
-0.027920
  0
VERTEX
  8
0
 10
224.645939
 20
360.246914
 42
-0.020491
  0
VERTEX
  8
0
 10
221.560117
 20
356.715851
 42
-0.006499
  0
VERTEX
  8
0
 10
216.680006
 20
351.705040
 42
0.029498
  0
VERTEX
  8
0
 10
210.249010
 20
344.463770
 42
0.035828
  0
VERTEX
  8
0
 10
205.158368
 20
336.952075
 42
0.031487
  0
VERTEX
  8
0
 10
200.725647
 20
328.028104
 42
0.016214
  0
VERTEX
  8
0
 10
196.263463
 20
316.373183
 42
0.000000
  0
VERTEX
  8
0
 10
192.500000
 20
305.500000
 42
0.000000
  0
VERTEX
  8
0
 10
192.570152
 20
285.500000
 42
0.009420
  0
VERTEX
  8
0
 10
192.851031
 20
272.932640
 42
0.010369
  0
VERTEX
  8
0
 10
193.604401
 20
260.781767
 42
0.011088
  0
VERTEX
  8
0
 10
194.732409
 20
250.061282
 42
0.025343
  0
VERTEX
  8
0
 10
196.168913
 20
242.061966
 42
-0.302028
  0
VERTEX
  8
0
 10
195.514328
 20
240.313758
 42
-0.021358
  0
VERTEX
  8
0
 10
190.942623
 20
237.297684
 42
-0.028109
  0
VERTEX
  8
0
 10
185.447870
 20
234.407165
 42
-0.035755
  0
VERTEX
  8
0
 10
180.080545
 20
232.407767
 42
-0.066530
  0
VERTEX
  8
0
 10
165.963281
 20
230.241712
 42
-0.049432
  0
VERTEX
  8
0
 10
150.221439
 20
231.494285
 42
-0.050382
  0
VERTEX
  8
0
 10
135.432254
 20
235.728830
 42
-0.080738
  0
VERTEX
  8
0
 10
124.200838
 20
242.471526
 42
-0.105866
  0
VERTEX
  8
0
 10
118.338553
 20
250.055424
 42
-0.049276
  0
VERTEX
  8
0
 10
114.070060
 20
261.798695
 42
-0.044682
  0
VERTEX
  8
0
 10
111.795880
 20
275.814182
 42
-0.041266
  0
VERTEX
  8
0
 10
111.955277
 20
290.396044
 42
-0.022103
  0
VERTEX
  8
0
 10
113.573642
 20
302.081730
 42
-0.027574
  0
VERTEX
  8
0
 10
116.145387
 20
312.731435
 42
-0.024797
  0
VERTEX
  8
0
 10
120.112661
 20
323.887625
 42
-0.013398
  0
VERTEX
  8
0
 10
126.032497
 20
337.213761
 42
0.001819
  0
VERTEX
  8
0
 10
129.086510
 20
343.680757
 42
0.002855
  0
VERTEX
  8
0
 10
131.659546
 20
349.263835
 42
0.000756
  0
VERTEX
  8
0
 10
133.867189
 20
354.146522
 42
0.106176
  0
VERTEX
  8
0
 10
134.000000
 20
354.764902
 42
-0.122203
  0
VERTEX
  8
0
 10
134.147180
 20
355.358103
 42
-0.001629
  0
VERTEX
  8
0
 10
135.938591
 20
358.719405
 42
-0.004542
  0
VERTEX
  8
0
 10
138.070128
 20
362.602652
 42
-0.002955
  0
VERTEX
  8
0
 10
140.599459
 20
367.051142
 42
0.006632
  0
VERTEX
  8
0
 10
145.847273
 20
376.440814
 42
0.017430
  0
VERTEX
  8
0
 10
149.282062
 20
383.347021
 42
0.020304
  0
VERTEX
  8
0
 10
151.921273
 20
389.840162
 42
0.012352
  0
VERTEX
  8
0
 10
154.533515
 20
397.702890
 42
-0.020129
  0
VERTEX
  8
0
 10
157.819549
 20
407.102609
 42
-0.044983
  0
VERTEX
  8
0
 10
161.221058
 20
413.857950
 42
-0.052738
  0
VERTEX
  8
0
 10
165.393861
 20
419.215173
 42
-0.039436
  0
VERTEX
  8
0
 10
171.000000
 20
424.180322
 42
-0.068703
  0
VERTEX
  8
0
 10
176.516578
 20
427.257485
 42
-0.044390
  0
VERTEX
  8
0
 10
183.550794
 20
429.302315
 42
-0.044281
  0
VERTEX
  8
0
 10
190.193650
 20
430.006921
 42
-0.170492
  0
SEQEND
  0
POLYLINE
  8
0
 66
1
 70
1
  0
VERTEX
  8
0
 10
454.041674
 20
373.750000
 42
-0.069946
  0
VERTEX
  8
0
 10
456.727061
 20
365.136537
 42
-0.077358
  0
VERTEX
  8
0
 10
456.798066
 20
356.417828
 42
-0.057879
  0
VERTEX
  8
0
 10
454.056976
 20
346.191769
 42
-0.021699
  0
VERTEX
  8
0
 10
447.983152
 20
332.624081
 42
0.007971
  0
VERTEX
  8
0
 10
445.479171
 20
327.418723
 42
0.007422
  0
VERTEX
  8
0
 10
443.080275
 20
322.011811
 42
0.007422
  0
VERTEX
  8
0
 10
441.091195
 20
317.143680
 42
0.024827
  0
VERTEX
  8
0
 10
439.995500
 20
313.874625
 42
0.000000
  0
VERTEX
  8
0
 10
438.205435
 20
307.500000
 42
0.000000
  0
VERTEX
  8
0
 10
436.602717
 20
311.217881
 42
-0.070299
  0
VERTEX
  8
0
 10
435.497844
 20
315.262831
 42
-0.029558
  0
VERTEX
  8
0
 10
435.118426
 20
320.902289
 42
-0.017867
  0
VERTEX
  8
0
 10
435.349870
 20
329.270401
 42
-0.004339
  0
VERTEX
  8
0
 10
436.345438
 20
343.062600
 42
0.000000
  0
VERTEX
  8
0
 10
437.604640
 20
358.625199
 42
0.000000
  0
VERTEX
  8
0
 10
442.578175
 20
366.062600
 42
0.006870
  0
VERTEX
  8
0
 10
444.580907
 20
369.148404
 42
0.006994
  0
VERTEX
  8
0
 10
446.485965
 20
372.269951
 42
0.006827
  0
VERTEX
  8
0
 10
448.066132
 20
375.027775
 42
0.028545
  0
VERTEX
  8
0
 10
448.897176
 20
376.750000
 42
-0.010349
  0
VERTEX
  8
0
 10
449.443299
 20
377.995584
 42
-0.015999
  0
VERTEX
  8
0
 10
449.971121
 20
379.045313
 42
-0.010353
  0
VERTEX
  8
0
 10
450.445265
 20
379.876116
 42
-0.263745
  0
VERTEX
  8
0
 10
450.663784
 20
380.000000
 42
-0.272293
  0
VERTEX
  8
0
 10
450.899256
 20
379.861496
 42
-0.002978
  0
VERTEX
  8
0
 10
451.829760
 20
378.164062
 42
-0.008250
  0
VERTEX
  8
0
 10
452.877841
 20
376.145926
 42
-0.005153
  0
SEQEND
  0
POLYLINE
  8
0
 66
1
 70
1
  0
VERTEX
  8
0
 10
531.127825
 20
291.212257
 42
-0.039003
  0
VERTEX
  8
0
 10
541.642652
 20
275.729864
 42
-0.040448
  0
VERTEX
  8
0
 10
549.480480
 20
258.984682
 42
-0.034701
  0
VERTEX
  8
0
 10
555.371900
 20
239.064074
 42
-0.018466
  0
VERTEX
  8
0
 10
560.008797
 20
213.761339
 42
-0.039176
  0
VERTEX
  8
0
 10
560.551527
 20
205.550711
 42
-0.012384
  0
VERTEX
  8
0
 10
560.095796
 20
193.263862
 42
-0.009757
  0
VERTEX
  8
0
 10
559.110330
 20
181.177296
 42
-0.086120
  0
VERTEX
  8
0
 10
557.672942
 20
176.037330
 42
-0.056798
  0
VERTEX
  8
0
 10
556.978714
 20
174.925015
 42
-0.023959
  0
VERTEX
  8
0
 10
555.816427
 20
173.598095
 42
-0.023332
  0
VERTEX
  8
0
 10
554.425986
 20
172.284794
 42
-0.028127
  0
VERTEX
  8
0
 10
553.000000
 20
171.191770
 42
-0.036479
  0
VERTEX
  8
0
 10
550.786611
 20
169.910274
 42
-0.069821
  0
VERTEX
  8
0
 10
548.836665
 20
169.280328
 42
-0.048438
  0
VERTEX
  8
0
 10
546.354615
 20
169.090683
 42
-0.010179
  0
VERTEX
  8
0
 10
542.000000
 20
169.268887
 42
-0.042587
  0
VERTEX
  8
0
 10
533.713125
 20
170.490651
 42
-0.021020
  0
VERTEX
  8
0
 10
523.457553
 20
173.368029
 42
-0.021013
  0
VERTEX
  8
0
 10
513.502555
 20
177.087742
 42
-0.043573
  0
VERTEX
  8
0
 10
506.175989
 20
180.964649
 42
-0.018414
  0
VERTEX
  8
0
 10
497.665835
 20
186.920363
 42
-0.013476
  0
VERTEX
  8
0
 10
488.658660
 20
194.120941
 42
-0.013674
  0
VERTEX
  8
0
 10
480.426151
 20
201.468942
 42
-0.026988
  0
VERTEX
  8
0
 10
474.384981
 20
207.814896
 42
-0.026631
  0
VERTEX
  8
0
 10
465.538705
 20
219.365422
 42
-0.024764
  0
VERTEX
  8
0
 10
457.736821
 20
232.067324
 42
-0.025936
  0
VERTEX
  8
0
 10
451.841100
 20
244.289929
 42
-0.057683
  0
VERTEX
  8
0
 10
448.966202
 20
254.200376
 42
-0.030358
  0
VERTEX
  8
0
 10
448.259602
 20
260.816189
 42
-0.056296
  0
VERTEX
  8
0
 10
448.619462
 20
266.197800
 42
-0.049643
  0
VERTEX
  8
0
 10
450.219672
 20
271.795425
 42
-0.018800
  0
VERTEX
  8
0
 10
453.503883
 20
279.244599
 42
0.014169
  0
VERTEX
  8
0
 10
456.619034
 20
286.136720
 42
0.036690
  0
VERTEX
  8
0
 10
458.348091
 20
291.305443
 42
0.052848
  0
VERTEX
  8
0
 10
458.893905
 20
295.072924
 42
0.184812
  0
VERTEX
  8
0
 10
458.118594
 20
297.357103
 42
0.108121
  0
VERTEX
  8
0
 10
457.386923
 20
297.928089
 42
0.027243
  0
VERTEX
  8
0
 10
455.982701
 20
298.509881
 42
0.026519
  0
VERTEX
  8
0
 10
454.266387
 20
299.013253
 42
0.024016
  0
VERTEX
  8
0
 10
452.448802
 20
299.351963
 42
-0.026471
  0
VERTEX
  8
0
 10
448.341753
 20
300.138195
 42
-0.088146
  0
VERTEX
  8
0
 10
445.840707
 20
301.248842
 42
-0.122051
  0
VERTEX
  8
0
 10
444.328324
 20
302.924782
 42
-0.076599
  0
VERTEX
  8
0
 10
443.447561
 20
305.427830
 42
-0.088997
  0
VERTEX
  8
0
 10
443.413683
 20
309.705427
 42
-0.036239
  0
VERTEX
  8
0
 10
444.813806
 20
315.376377
 42
-0.027203
  0
VERTEX
  8
0
 10
447.604818
 20
322.595945
 42
-0.011891
  0
VERTEX
  8
0
 10
452.044730
 20
331.856511
 42
0.014216
  0
VERTEX
  8
0
 10
456.030241
 20
340.269398
 42
0.024333
  0
VERTEX
  8
0
 10
458.804719
 20
347.522881
 42
0.029291
  0
VERTEX
  8
0
 10
460.460557
 20
353.795027
 42
0.049927
  0
VERTEX
  8
0
 10
461.000000
 20
359.183833
 42
-0.512982
  0
VERTEX
  8
0
 10
462.224332
 20
360.063151
 42
-0.100202
  0
VERTEX
  8
0
 10
465.026027
 20
358.440886
 42
-0.014801
  0
VERTEX
  8
0
 10
471.581561
 20
352.282207
 42
-0.000688
  0
VERTEX
  8
0
 10
493.149892
 20
330.723734
 42
-0.002062
  0
VERTEX
  8
0
 10
505.887592
 20
317.851032
 42
-0.002598
  0
VERTEX
  8
0
 10
517.567740
 20
305.824947
 42
-0.002068
  0
VERTEX
  8
0
 10
527.269373
 20
295.647635
 42
-0.020697
  0
SEQEND
  0
POLYLINE
  8
0
 66
1
 70
1
  0
VERTEX
  8
0
 10
449.024950
 20
208.705208
 42
-0.090507
  0
VERTEX
  8
0
 10
454.627202
 20
204.294506
 42
-0.082003
  0
VERTEX
  8
0
 10
458.542600
 20
198.044888
 42
-0.075811
  0
VERTEX
  8
0
 10
460.447859
 20
190.414989
 42
-0.062009
  0
VERTEX
  8
0
 10
460.191235
 20
182.000000
 42
0.000000
  0
VERTEX
  8
0
 10
459.491112
 20
177.500000
 42
0.000000
  0
VERTEX
  8
0
 10
457.237193
 20
181.131565
 42
0.015591
  0
VERTEX
  8
0
 10
455.853549
 20
183.213166
 42
0.002518
  0
VERTEX
  8
0
 10
453.014818
 20
187.165564
 42
0.002779
  0
VERTEX
  8
0
 10
449.621993
 20
191.785343
 42
0.002439
  0
VERTEX
  8
0
 10
446.028228
 20
196.573192
 42
-0.005022
  0
VERTEX
  8
0
 10
441.624080
 20
202.504247
 42
-0.022094
  0
VERTEX
  8
0
 10
439.219983
 20
206.137933
 42
-0.033659
  0
VERTEX
  8
0
 10
437.992204
 20
208.536995
 42
-0.281732
  0
VERTEX
  8
0
 10
438.159036
 20
209.691627
 42
-0.164402
  0
VERTEX
  8
0
 10
439.838576
 20
210.726412
 42
-0.079373
  0
VERTEX
  8
0
 10
442.388978
 20
210.899801
 42
-0.061044
  0
VERTEX
  8
0
 10
445.547170
 20
210.218495
 42
-0.038024
  0
SEQEND
  0
POLYLINE
  8
0
 66
1
 70
1
  0
VERTEX
  8
0
 10
279.250000
 20
561.269820
 42
0.168566
  0
VERTEX
  8
0
 10
278.065022
 20
560.331125
 42
0.340939
  0
VERTEX
  8
0
 10
278.166267
 20
559.212957
 42
0.129893
  0
VERTEX
  8
0
 10
279.864712
 20
558.136261
 42
0.043783
  0
VERTEX
  8
0
 10
282.750000
 20
557.493644
 42
-0.030029
  0
VERTEX
  8
0
 10
291.213201
 20
555.851306
 42
-0.029118
  0
VERTEX
  8
0
 10
299.508526
 20
553.194709
 42
-0.029506
  0
VERTEX
  8
0
 10
307.327529
 20
549.635731
 42
-0.033072
  0
VERTEX
  8
0
 10
314.367353
 20
545.297660
 42
0.014293
  0
VERTEX
  8
0
 10
316.663591
 20
543.760878
 42
0.043710
  0
VERTEX
  8
0
 10
318.329626
 20
542.906506
 42
0.073001
  0
VERTEX
  8
0
 10
319.523847
 20
542.613322
 42
0.223723
  0
VERTEX
  8
0
 10
320.288173
 20
542.888173
 42
0.445004
  0
VERTEX
  8
0
 10
320.142540
 20
545.687071
 42
0.030590
  0
VERTEX
  8
0
 10
312.897587
 20
550.862231
 42
0.033204
  0
VERTEX
  8
0
 10
303.447661
 20
555.935815
 42
0.040421
  0
VERTEX
  8
0
 10
294.000000
 20
559.336823
 42
0.015403
  0
VERTEX
  8
0
 10
289.382357
 20
560.437222
 42
0.018209
  0
VERTEX
  8
0
 10
284.955765
 20
561.182150
 42
0.017321
  0
VERTEX
  8
0
 10
281.212781
 20
561.541336
 42
0.099573
  0
SEQEND
  0
POLYLINE
  8
0
 66
1
 70
1
  0
VERTEX
  8
0
 10
259.250000
 20
552.337719
 42
0.087674
  0
VERTEX
  8
0
 10
258.772091
 20
552.039141
 42
0.065245
  0
VERTEX
  8
0
 10
258.367188
 20
551.565351
 42
0.064399
  0
VERTEX
  8
0
 10
258.093368
 20
550.995939
 42
0.080074
  0
VERTEX
  8
0
 10
258.000000
 20
550.416667
 42
0.250706
  0
VERTEX
  8
0
 10
258.361535
 20
549.740953
 42
0.093147
  0
VERTEX
  8
0
 10
259.385522
 20
549.305041
 42
0.044136
  0
VERTEX
  8
0
 10
261.250042
 20
549.064140
 42
0.010069
  0
VERTEX
  8
0
 10
264.434624
 20
549.000000
 42
-0.056001
  0
VERTEX
  8
0
 10
278.290286
 20
547.443266
 42
-0.040015
  0
VERTEX
  8
0
 10
293.191731
 20
542.772298
 42
-0.038591
  0
VERTEX
  8
0
 10
307.782202
 20
535.527314
 42
-0.041396
  0
VERTEX
  8
0
 10
320.725111
 20
526.272066
 42
0.009376
  0
VERTEX
  8
0
 10
323.879886
 20
523.695938
 42
0.035667
  0
VERTEX
  8
0
 10
325.985098
 20
522.271962
 42
0.064016
  0
VERTEX
  8
0
 10
327.428122
 20
521.669412
 42
0.269529
  0
VERTEX
  8
0
 10
328.300379
 20
521.900379
 42
0.402057
  0
VERTEX
  8
0
 10
328.338675
 20
523.737621
 42
0.014641
  0
VERTEX
  8
0
 10
322.995348
 20
529.215160
 42
0.023282
  0
VERTEX
  8
0
 10
316.733705
 20
534.728856
 42
0.035742
  0
VERTEX
  8
0
 10
310.788913
 20
538.830521
 42
0.021133
  0
VERTEX
  8
0
 10
303.431687
 20
542.757070
 42
0.018185
  0
VERTEX
  8
0
 10
295.395477
 20
546.265326
 42
0.018464
  0
VERTEX
  8
0
 10
287.285039
 20
549.119036
 42
0.024479
  0
VERTEX
  8
0
 10
279.709742
 20
551.073156
 42
0.016115
  0
VERTEX
  8
0
 10
273.303636
 20
552.181263
 42
0.019334
  0
VERTEX
  8
0
 10
267.217005
 20
552.794374
 42
0.019250
  0
VERTEX
  8
0
 10
262.098361
 20
552.913317
 42
0.092327
  0
SEQEND
  0
POLYLINE
  8
0
 66
1
 70
1
  0
VERTEX
  8
0
 10
131.750000
 20
473.855593
 42
0.027857
  0
VERTEX
  8
0
 10
128.680244
 20
472.804931
 42
0.342961
  0
VERTEX
  8
0
 10
128.099823
 20
471.801819
 42
0.368959
  0
VERTEX
  8
0
 10
128.928326
 20
471.063893
 42
0.028955
  0
VERTEX
  8
0
 10
132.116427
 20
471.182493
 42
-0.029504
  0
VERTEX
  8
0
 10
134.595743
 20
471.272005
 42
-0.112945
  0
VERTEX
  8
0
 10
136.084178
 20
470.895368
 42
-0.094436
  0
VERTEX
  8
0
 10
137.399933
 20
469.871904
 42
-0.017225
  0
VERTEX
  8
0
 10
139.366427
 20
467.474373
 42
0.025111
  0
VERTEX
  8
0
 10
142.507063
 20
463.766137
 42
0.024654
  0
VERTEX
  8
0
 10
146.022030
 20
460.367496
 42
0.022750
  0
VERTEX
  8
0
 10
150.114461
 20
457.099982
 42
0.015900
  0
VERTEX
  8
0
 10
155.000000
 20
453.782704
 42
0.036904
  0
VERTEX
  8
0
 10
162.907342
 20
449.555671
 42
0.041476
  0
VERTEX
  8
0
 10
171.052246
 20
446.727182
 42
0.028302
  0
VERTEX
  8
0
 10
181.808702
 20
444.605476
 42
0.007716
  0
VERTEX
  8
0
 10
199.000000
 20
442.484927
 42
-0.009324
  0
VERTEX
  8
0
 10
214.180872
 20
440.562774
 42
-0.016195
  0
VERTEX
  8
0
 10
226.685229
 20
438.326337
 42
-0.017272
  0
VERTEX
  8
0
 10
238.446692
 20
435.399320
 42
-0.012638
  0
VERTEX
  8
0
 10
251.287134
 20
431.374812
 42
-0.012650
  0
VERTEX
  8
0
 10
268.867590
 20
424.871628
 42
-0.025664
  0
VERTEX
  8
0
 10
282.261081
 20
418.714245
 42
-0.025194
  0
VERTEX
  8
0
 10
295.108088
 20
411.141874
 42
-0.011741
  0
VERTEX
  8
0
 10
311.000000
 20
400.118087
 42
0.024562
  0
VERTEX
  8
0
 10
319.378278
 20
394.618926
 42
0.015077
  0
VERTEX
  8
0
 10
329.734788
 20
388.940062
 42
0.014898
  0
VERTEX
  8
0
 10
339.916474
 20
384.126542
 42
0.040197
  0
VERTEX
  8
0
 10
347.475114
 20
381.525040
 42
0.029281
  0
VERTEX
  8
0
 10
355.084045
 20
380.041329
 42
0.007263
  0
VERTEX
  8
0
 10
367.697218
 20
378.526735
 42
0.007744
  0
VERTEX
  8
0
 10
380.673936
 20
377.362268
 42
0.019134
  0
VERTEX
  8
0
 10
390.221560
 20
377.020840
 42
0.012893
  0
VERTEX
  8
0
 10
393.844042
 20
377.123388
 42
0.009211
  0
VERTEX
  8
0
 10
397.889214
 20
377.417205
 42
0.009309
  0
VERTEX
  8
0
 10
401.736768
 20
377.840382
 42
0.019609
  0
VERTEX
  8
0
 10
404.699169
 20
378.340901
 42
0.000000
  0
VERTEX
  8
0
 10
410.898339
 20
379.640123
 42
0.000000
  0
VERTEX
  8
0
 10
413.949169
 20
376.589292
 42
0.009571
  0
VERTEX
  8
0
 10
415.574295
 20
375.025221
 42
0.088364
  0
VERTEX
  8
0
 10
416.393232
 20
374.499333
 42
0.376596
  0
VERTEX
  8
0
 10
416.818495
 20
374.642986
 42
0.131931
  0
VERTEX
  8
0
 10
417.000000
 20
375.318891
 42
0.128797
  0
VERTEX
  8
0
 10
416.053553
 20
378.932126
 42
0.047450
  0
VERTEX
  8
0
 10
413.022752
 20
383.294547
 42
0.045300
  0
VERTEX
  8
0
 10
408.832143
 20
387.425544
 42
0.055269
  0
VERTEX
  8
0
 10
404.220632
 20
390.428914
 42
0.038298
  0
VERTEX
  8
0
 10
402.103183
 20
391.300018
 42
0.095116
  0
VERTEX
  8
0
 10
400.446937
 20
391.506570
 42
0.174988
  0
VERTEX
  8
0
 10
399.417391
 20
391.056573
 42
0.205905
  0
VERTEX
  8
0
 10
399.000000
 20
390.085993
 42
0.213339
  0
VERTEX
  8
0
 10
399.195909
 20
389.647742
 42
0.012632
  0
VERTEX
  8
0
 10
400.330234
 20
388.683004
 42
0.017241
  0
VERTEX
  8
0
 10
401.793364
 20
387.582135
 42
0.011720
  0
VERTEX
  8
0
 10
403.528457
 20
386.427609
 42
-0.050978
  0
VERTEX
  8
0
 10
406.365587
 20
384.200347
 42
-0.532384
  0
VERTEX
  8
0
 10
406.150711
 20
382.985464
 42
-0.086099
  0
VERTEX
  8
0
 10
403.226562
 20
382.252723
 42
-0.003622
  0
VERTEX
  8
0
 10
392.500000
 20
381.538255
 42
-0.023128
  0
VERTEX
  8
0
 10
382.296745
 20
381.405417
 42
-0.015113
  0
VERTEX
  8
0
 10
370.548389
 20
382.151884
 42
-0.015152
  0
VERTEX
  8
0
 10
358.937935
 20
383.598741
 42
-0.024350
  0
VERTEX
  8
0
 10
349.168742
 20
385.609279
 42
-0.039737
  0
VERTEX
  8
0
 10
341.446655
 20
388.263716
 42
-0.017885
  0
VERTEX
  8
0
 10
331.771087
 20
392.893365
 42
-0.017137
  0
VERTEX
  8
0
 10
321.535994
 20
398.703777
 42
-0.018325
  0
VERTEX
  8
0
 10
311.955195
 20
405.080471
 42
0.006509
  0
VERTEX
  8
0
 10
297.197771
 20
415.413856
 42
0.021175
  0
VERTEX
  8
0
 10
287.055260
 20
421.709430
 42
0.025703
  0
VERTEX
  8
0
 10
277.503479
 20
426.462943
 42
0.013656
  0
VERTEX
  8
0
 10
265.245049
 20
431.402745
 42
0.009556
  0
VERTEX
  8
0
 10
246.515666
 20
437.957386
 42
0.022279
  0
VERTEX
  8
0
 10
232.209903
 20
441.962595
 42
0.021259
  0
VERTEX
  8
0
 10
217.208401
 20
444.784267
 42
0.007992
  0
VERTEX
  8
0
 10
196.000000
 20
447.501471
 42
-0.003768
  0
VERTEX
  8
0
 10
189.953370
 20
448.224293
 42
-0.003514
  0
VERTEX
  8
0
 10
183.775887
 20
449.054179
 42
-0.003502
  0
VERTEX
  8
0
 10
178.298011
 20
449.868480
 42
-0.011921
  0
VERTEX
  8
0
 10
174.747700
 20
450.508722
 42
-0.041674
  0
VERTEX
  8
0
 10
167.828786
 20
452.539982
 42
-0.032193
  0
VERTEX
  8
0
 10
160.691660
 20
455.841070
 42
-0.031396
  0
VERTEX
  8
0
 10
153.835696
 20
460.142801
 42
-0.033874
  0
VERTEX
  8
0
 10
147.754349
 20
465.170646
 42
0.000000
  0
VERTEX
  8
0
 10
141.500000
 20
471.098127
 42
0.000000
  0
VERTEX
  8
0
 10
147.292468
 20
470.713269
 42
0.014381
  0
VERTEX
  8
0
 10
151.284843
 20
470.563154
 42
0.109508
  0
VERTEX
  8
0
 10
153.113388
 20
470.951603
 42
0.419601
  0
VERTEX
  8
0
 10
153.418589
 20
471.790966
 42
0.108483
  0
VERTEX
  8
0
 10
152.433386
 20
473.055285
 42
0.149389
  0
VERTEX
  8
0
 10
149.861498
 20
474.130979
 42
0.015222
  0
VERTEX
  8
0
 10
143.190602
 20
474.592773
 42
0.019741
  0
VERTEX
  8
0
 10
136.366990
 20
474.587292
 42
0.058513
  0
SEQEND
  0
POLYLINE
  8
0
 66
1
 70
1
  0
VERTEX
  8
0
 10
229.311335
 20
418.505697
 42
0.027777
  0
VERTEX
  8
0
 10
234.468919
 20
414.167269
 42
0.043967
  0
VERTEX
  8
0
 10
239.372175
 20
411.120904
 42
0.038059
  0
VERTEX
  8
0
 10
245.223146
 20
408.702343
 42
0.015471
  0
VERTEX
  8
0
 10
253.500000
 20
406.277887
 42
0.035269
  0
VERTEX
  8
0
 10
259.294390
 20
405.202520
 42
0.019120
  0
VERTEX
  8
0
 10
266.525171
 20
404.660963
 42
0.010581
  0
VERTEX
  8
0
 10
273.486406
 20
404.554035
 42
0.281679
  0
VERTEX
  8
0
 10
275.000000
 20
405.492330
 42
0.457235
  0
VERTEX
  8
0
 10
274.802165
 20
405.972285
 42
0.012873
  0
VERTEX
  8
0
 10
272.394081
 20
406.707623
 42
0.017095
  0
VERTEX
  8
0
 10
269.150593
 20
407.489123
 42
0.008535
  0
VERTEX
  8
0
 10
265.000000
 20
408.266640
 42
-0.014404
  0
VERTEX
  8
0
 10
254.728314
 20
410.315867
 42
-0.027781
  0
VERTEX
  8
0
 10
246.674176
 20
412.642958
 42
-0.031452
  0
VERTEX
  8
0
 10
239.616909
 20
415.624248
 42
-0.025700
  0
VERTEX
  8
0
 10
232.478932
 20
419.654267
 42
0.004232
  0
VERTEX
  8
0
 10
229.193638
 20
421.699813
 42
0.006422
  0
VERTEX
  8
0
 10
226.300074
 20
423.417000
 42
0.002761
  0
VERTEX
  8
0
 10
223.811694
 20
424.832590
 42
0.142778
  0
VERTEX
  8
0
 10
223.276548
 20
424.956797
 42
0.628296
  0
VERTEX
  8
0
 10
223.184288
 20
424.734430
 42
0.005856
  0
VERTEX
  8
0
 10
224.728941
 20
423.043965
 42
0.010300
  0
VERTEX
  8
0
 10
226.753371
 20
420.967325
 42
0.005660
  0
SEQEND
  0
POLYLINE
  8
0
 66
1
 70
1
  0
VERTEX
  8
0
 10
181.032906
 20
579.430611
 42
0.123777
  0
VERTEX
  8
0
 10
164.955533
 20
570.348607
 42
0.076356
  0
VERTEX
  8
0
 10
151.602794
 20
553.068001
 42
0.075477
  0
VERTEX
  8
0
 10
143.922250
 20
532.335735
 42
0.114297
  0
VERTEX
  8
0
 10
144.372108
 20
513.184933
 42
0.053456
  0
VERTEX
  8
0
 10
147.565007
 20
504.647986
 42
0.065377
  0
VERTEX
  8
0
 10
152.339897
 20
497.597382
 42
0.065825
  0
VERTEX
  8
0
 10
158.743397
 20
492.054464
 42
0.055249
  0
VERTEX
  8
0
 10
166.747915
 20
487.971933
 42
0.067928
  0
VERTEX
  8
0
 10
175.445715
 20
485.975682
 42
0.032232
  0
VERTEX
  8
0
 10
186.962102
 20
485.681756
 42
0.030893
  0
VERTEX
  8
0
 10
197.936001
 20
486.790477
 42
0.117769
  0
VERTEX
  8
0
 10
204.237832
 20
489.431956
 42
0.160426
  0
VERTEX
  8
0
 10
206.108196
 20
492.044746
 42
0.025459
  0
VERTEX
  8
0
 10
207.702179
 20
498.229561
 42
0.020293
  0
VERTEX
  8
0
 10
209.175480
 20
507.315794
 42
0.007070
  0
VERTEX
  8
0
 10
210.578622
 20
520.500000
 42
0.015501
  0
VERTEX
  8
0
 10
211.775268
 20
540.129323
 42
0.042608
  0
VERTEX
  8
0
 10
211.009345
 20
553.971231
 42
0.061432
  0
VERTEX
  8
0
 10
208.260867
 20
564.173530
 42
0.087435
  0
VERTEX
  8
0
 10
203.282567
 20
572.108993
 42
0.046425
  0
VERTEX
  8
0
 10
198.058531
 20
576.910722
 42
0.083345
  0
VERTEX
  8
0
 10
192.917666
 20
579.614693
 42
0.088458
  0
VERTEX
  8
0
 10
187.393303
 20
580.401363
 42
0.058290
  0
SEQEND
  0
POLYLINE
  8
0
 66
1
 70
1
  0
VERTEX
  8
0
 10
199.561014
 20
566.962291
 42
-0.089528
  0
VERTEX
  8
0
 10
202.868373
 20
563.989621
 42
-0.069677
  0
VERTEX
  8
0
 10
205.279223
 20
559.788080
 42
-0.054058
  0
VERTEX
  8
0
 10
206.873483
 20
554.111470
 42
-0.026555
  0
VERTEX
  8
0
 10
207.718399
 20
546.645334
 42
-0.015722
  0
VERTEX
  8
0
 10
207.979189
 20
537.383005
 42
-0.115908
  0
VERTEX
  8
0
 10
206.960392
 20
533.110447
 42
-0.279712
  0
VERTEX
  8
0
 10
204.598890
 20
531.628434
 42
-0.103048
  0
VERTEX
  8
0
 10
200.575925
 20
532.403830
 42
-0.141772
  0
VERTEX
  8
0
 10
194.711040
 20
537.121811
 42
-0.075586
  0
VERTEX
  8
0
 10
190.537052
 20
545.529577
 42
-0.072502
  0
VERTEX
  8
0
 10
188.920667
 20
555.226958
 42
-0.104425
  0
VERTEX
  8
0
 10
190.538787
 20
563.747073
 42
-0.037308
  0
VERTEX
  8
0
 10
192.325740
 20
567.261787
 42
-0.172562
  0
VERTEX
  8
0
 10
194.065741
 20
568.680678
 42
-0.183092
  0
VERTEX
  8
0
 10
196.245154
 20
568.637438
 42
-0.042917
  0
SEQEND
  0
POLYLINE
  8
0
 66
1
 70
1
  0
VERTEX
  8
0
 10
179.000000
 20
544.500000
 42
-0.092663
  0
VERTEX
  8
0
 10
179.422198
 20
542.160213
 42
-0.074564
  0
VERTEX
  8
0
 10
179.026516
 20
539.630075
 42
-0.087262
  0
VERTEX
  8
0
 10
178.014016
 20
537.676036
 42
-0.233786
  0
VERTEX
  8
0
 10
176.647196
 20
537.000000
 42
-0.225063
  0
VERTEX
  8
0
 10
174.481970
 20
538.026626
 42
-0.104093
  0
VERTEX
  8
0
 10
173.015147
 20
540.858905
 42
-0.103251
  0
VERTEX
  8
0
 10
172.807915
 20
544.059968
 42
-0.219695
  0
VERTEX
  8
0
 10
174.125000
 20
546.098416
 42
-0.066954
  0
VERTEX
  8
0
 10
175.749690
 20
546.845354
 42
-0.154730
  0
VERTEX
  8
0
 10
177.078188
 20
546.832322
 42
-0.155822
  0
VERTEX
  8
0
 10
178.150375
 20
546.057138
 42
-0.068187
  0
SEQEND
  0
POLYLINE
  8
0
 66
1
 70
1
  0
VERTEX
  8
0
 10
191.545455
 20
524.545455
 42
-0.126026
  0
VERTEX
  8
0
 10
193.641389
 20
521.006251
 42
-0.110937
  0
VERTEX
  8
0
 10
193.912031
 20
516.713909
 42
-0.135658
  0
VERTEX
  8
0
 10
192.362548
 20
513.314456
 42
-0.221903
  0
VERTEX
  8
0
 10
189.546604
 20
512.000000
 42
-0.043531
  0
VERTEX
  8
0
 10
187.051558
 20
512.217634
 42
-0.087134
  0
VERTEX
  8
0
 10
185.196576
 20
512.890222
 42
-0.091431
  0
VERTEX
  8
0
 10
183.738256
 20
514.128618
 42
-0.051838
  0
VERTEX
  8
0
 10
182.463015
 20
516.071521
 42
-0.048140
  0
VERTEX
  8
0
 10
181.395523
 20
518.736097
 42
-0.076632
  0
VERTEX
  8
0
 10
181.073305
 20
521.165333
 42
-0.088694
  0
VERTEX
  8
0
 10
181.505196
 20
523.317823
 42
-0.090400
  0
VERTEX
  8
0
 10
182.654988
 20
525.171259
 42
-0.111072
  0
VERTEX
  8
0
 10
184.581980
 20
526.529561
 42
-0.116278
  0
VERTEX
  8
0
 10
186.872180
 20
526.902070
 42
-0.104273
  0
VERTEX
  8
0
 10
189.284704
 20
526.213379
 42
-0.075024
  0
SEQEND
  0
POLYLINE
  8
0
 66
1
 70
1
  0
VERTEX
  8
0
 10
396.000000
 20
515.064873
 42
0.061147
  0
VERTEX
  8
0
 10
386.418007
 20
510.803684
 42
0.032747
  0
VERTEX
  8
0
 10
375.757698
 20
503.415379
 42
0.031009
  0
VERTEX
  8
0
 10
365.304197
 20
493.993764
 42
0.032606
  0
VERTEX
  8
0
 10
356.282980
 20
483.500000
 42
0.028561
  0
VERTEX
  8
0
 10
352.435312
 20
477.725820
 42
0.011007
  0
VERTEX
  8
0
 10
347.743576
 20
469.311821
 42
0.010858
  0
VERTEX
  8
0
 10
343.462225
 20
460.776657
 42
0.032344
  0
VERTEX
  8
0
 10
341.046278
 20
454.702452
 42
0.033366
  0
VERTEX
  8
0
 10
340.446607
 20
452.326042
 42
0.100479
  0
VERTEX
  8
0
 10
340.479564
 20
450.662674
 42
0.070386
  0
VERTEX
  8
0
 10
341.171267
 20
448.828552
 42
0.010923
  0
VERTEX
  8
0
 10
343.114327
 20
445.458584
 42
0.043062
  0
VERTEX
  8
0
 10
350.163192
 20
435.809870
 42
0.040151
  0
VERTEX
  8
0
 10
358.915266
 20
427.263090
 42
0.038944
  0
VERTEX
  8
0
 10
369.195183
 20
419.994941
 42
0.035510
  0
VERTEX
  8
0
 10
380.792325
 20
414.153710
 42
0.011481
  0
VERTEX
  8
0
 10
386.137805
 20
412.064172
 42
0.039666
  0
VERTEX
  8
0
 10
389.718104
 20
411.071819
 42
0.037824
  0
VERTEX
  8
0
 10
393.495604
 20
410.633646
 42
0.009754
  0
VERTEX
  8
0
 10
399.634517
 20
410.508643
 42
0.009039
  0
VERTEX
  8
0
 10
406.214984
 20
410.622004
 42
0.051097
  0
VERTEX
  8
0
 10
409.687426
 20
411.102171
 42
0.049250
  0
VERTEX
  8
0
 10
413.043377
 20
412.281500
 42
0.008039
  0
VERTEX
  8
0
 10
419.251970
 20
415.299238
 42
0.032859
  0
VERTEX
  8
0
 10
429.840163
 20
421.562988
 42
0.042235
  0
VERTEX
  8
0
 10
438.602298
 20
428.711392
 42
0.047860
  0
VERTEX
  8
0
 10
445.034848
 20
436.249740
 42
0.082148
  0
VERTEX
  8
0
 10
448.595671
 20
443.681100
 42
0.089007
  0
VERTEX
  8
0
 10
450.325463
 20
460.037510
 42
0.059601
  0
VERTEX
  8
0
 10
446.740373
 20
478.554828
 42
0.060106
  0
VERTEX
  8
0
 10
438.957499
 20
495.508453
 42
0.096321
  0
VERTEX
  8
0
 10
428.227208
 20
507.201524
 42
0.027986
  0
VERTEX
  8
0
 10
422.180548
 20
511.165704
 42
0.041619
  0
VERTEX
  8
0
 10
416.460027
 20
513.866875
 42
0.045761
  0
VERTEX
  8
0
 10
410.814251
 20
515.408159
 42
0.046187
  0
VERTEX
  8
0
 10
405.000000
 20
515.890312
 42
0.010160
  0
VERTEX
  8
0
 10
402.328129
 20
515.810423
 42
0.010313
  0
VERTEX
  8
0
 10
399.675000
 20
515.622175
 42
0.010145
  0
VERTEX
  8
0
 10
397.376273
 20
515.364220
 42
0.041089
  0
SEQEND
  0
POLYLINE
  8
0
 66
1
 70
1
  0
VERTEX
  8
0
 10
413.454338
 20
505.583526
 42
-0.070613
  0
VERTEX
  8
0
 10
416.367145
 20
503.850260
 42
-0.082844
  0
VERTEX
  8
0
 10
418.502447
 20
501.453255
 42
-0.080852
  0
VERTEX
  8
0
 10
419.779149
 20
498.442433
 42
-0.063460
  0
VERTEX
  8
0
 10
420.179378
 20
494.914120
 42
-0.158151
  0
VERTEX
  8
0
 10
417.515914
 20
487.074359
 42
-0.108454
  0
VERTEX
  8
0
 10
410.357449
 20
480.877427
 42
-0.101674
  0
VERTEX
  8
0
 10
400.825091
 20
477.982830
 42
-0.122593
  0
VERTEX
  8
0
 10
391.598574
 20
479.394367
 42
-0.064816
  0
VERTEX
  8
0
 10
388.606660
 20
481.128264
 42
-0.092437
  0
VERTEX
  8
0
 10
386.560043
 20
483.407093
 42
-0.086607
  0
VERTEX
  8
0
 10
385.388046
 20
486.387753
 42
-0.050505
  0
VERTEX
  8
0
 10
385.000000
 20
490.219625
 42
-0.028448
  0
VERTEX
  8
0
 10
385.154816
 20
492.938492
 42
-0.070169
  0
VERTEX
  8
0
 10
385.655597
 20
494.868529
 42
-0.064306
  0
VERTEX
  8
0
 10
386.699900
 20
496.682281
 42
-0.020969
  0
VERTEX
  8
0
 10
388.676660
 20
499.063862
 42
-0.021253
  0
VERTEX
  8
0
 10
390.345634
 20
500.760385
 42
-0.015786
  0
VERTEX
  8
0
 10
392.322970
 20
502.492945
 42
-0.016021
  0
VERTEX
  8
0
 10
394.296052
 20
504.011362
 42
-0.034404
  0
VERTEX
  8
0
 10
395.926660
 20
505.022546
 42
-0.072948
  0
VERTEX
  8
0
 10
399.687812
 20
506.355838
 42
-0.040782
  0
VERTEX
  8
0
 10
404.521879
 20
506.906936
 42
-0.040578
  0
VERTEX
  8
0
 10
409.436267
 20
506.665357
 42
-0.066485
  0
SEQEND
  0
POLYLINE
  8
0
 66
1
 70
1
  0
VERTEX
  8
0
 10
394.065741
 20
466.964816
 42
-0.154029
  0
VERTEX
  8
0
 10
395.494751
 20
465.502102
 42
-0.138931
  0
VERTEX
  8
0
 10
395.899659
 20
463.419092
 42
-0.107558
  0
VERTEX
  8
0
 10
395.154700
 20
460.997079
 42
-0.068284
  0
VERTEX
  8
0
 10
393.363636
 20
458.636364
 42
-0.080816
  0
VERTEX
  8
0
 10
390.634296
 20
456.670847
 42
-0.091104
  0
VERTEX
  8
0
 10
387.532624
 20
455.775148
 42
-0.099573
  0
VERTEX
  8
0
 10
384.538858
 20
456.072704
 42
-0.118615
  0
VERTEX
  8
0
 10
382.101451
 20
457.512911
 42
-0.271866
  0
VERTEX
  8
0
 10
381.364791
 20
460.173766
 42
-0.101567
  0
VERTEX
  8
0
 10
383.163900
 20
463.775529
 42
-0.085540
  0
VERTEX
  8
0
 10
386.582840
 20
466.862638
 42
-0.138149
  0
VERTEX
  8
0
 10
390.315741
 20
467.973391
 42
-0.045413
  0
VERTEX
  8
0
 10
391.150365
 20
467.909745
 42
-0.023970
  0
VERTEX
  8
0
 10
392.166297
 20
467.688098
 42
-0.023647
  0
VERTEX
  8
0
 10
393.192459
 20
467.359367
 42
-0.033535
  0
SEQEND
  0
POLYLINE
  8
0
 66
1
 70
1
  0
VERTEX
  8
0
 10
424.000000
 20
465.000000
 42
-0.110464
  0
VERTEX
  8
0
 10
425.712711
 20
462.300454
 42
-0.135685
  0
VERTEX
  8
0
 10
425.937353
 20
459.334767
 42
-0.129580
  0
VERTEX
  8
0
 10
424.597654
 20
456.574379
 42
-0.096291
  0
VERTEX
  8
0
 10
421.928479
 20
454.463015
 42
-0.094168
  0
VERTEX
  8
0
 10
417.192616
 20
453.052524
 42
-0.088782
  0
VERTEX
  8
0
 10
412.164685
 20
453.432432
 42
-0.110413
  0
VERTEX
  8
0
 10
408.389370
 20
455.361814
 42
-0.227011
  0
VERTEX
  8
0
 10
407.031803
 20
458.306704
 42
-0.190635
  0
VERTEX
  8
0
 10
408.853239
 20
462.722146
 42
-0.107177
  0
VERTEX
  8
0
 10
413.746287
 20
465.993077
 42
-0.106456
  0
VERTEX
  8
0
 10
419.582577
 20
466.956564
 42
-0.186337
  0
SEQEND
  0
ENDSEC
  0
EOF
